<svg xmlns="http://www.w3.org/2000/svg" xmlns:xlink="http://www.w3.org/1999/xlink" width="800" zoomAndPan="magnify" viewBox="0 0 600 449.999984" height="600" preserveAspectRatio="xMidYMid meet" version="1.0"><defs><clipPath id="bd0cb828c3"><path d="M 220 288 L 404 288 L 404 360.371094 L 220 360.371094 Z M 220 288 " clip-rule="nonzero"/></clipPath><clipPath id="eb4682e2f5"><path d="M 293 33.371094 L 300 33.371094 L 300 44 L 293 44 Z M 293 33.371094 " clip-rule="nonzero"/></clipPath><clipPath id="d19bfedc8b"><path d="M 313 33.371094 L 319 33.371094 L 319 44 L 313 44 Z M 313 33.371094 " clip-rule="nonzero"/></clipPath><clipPath id="8247fa9688"><path d="M 160.320312 148 L 178 148 L 178 160 L 160.320312 160 Z M 160.320312 148 " clip-rule="nonzero"/></clipPath><clipPath id="3dbc9b899f"><path d="M 160.320312 174 L 176 174 L 176 181 L 160.320312 181 Z M 160.320312 174 " clip-rule="nonzero"/></clipPath><clipPath id="5e97a00aeb"><path d="M 438.296875 178.292969 L 448.246094 178.292969 L 448.246094 186.773438 L 438.296875 186.773438 Z M 438.296875 178.292969 " clip-rule="nonzero"/></clipPath></defs><rect x="-60" width="720" fill="#ffffff" y="-44.999998" height="539.99998" fill-opacity="1"/><rect x="-60" width="720" fill="#fcfcfc" y="-44.999998" height="539.99998" fill-opacity="1"/><path fill="#2a6b84" d="M 400.792969 312.089844 C 394.386719 312.753906 387.710938 312.996094 386.910156 310.777344 C 384.691406 304.597656 376.882812 302.773438 377.703125 302 C 378.027344 301.695312 380.800781 301.847656 385.402344 302.683594 C 387.667969 303.09375 394.425781 305.285156 396.667969 305.757812 C 397.816406 306.003906 398.777344 306.398438 399.59375 306.816406 C 402.894531 308.5 408.574219 309.019531 412.925781 310.0625 C 415.285156 310.628906 417.246094 311.953125 418.25 312.28125 C 417.085938 310.871094 415.308594 310.375 414.355469 310.015625 C 412.664062 309.367188 411.1875 308.730469 409.640625 308.460938 C 407.0625 308.015625 405.453125 307.867188 403.570312 306.9375 C 399.035156 304.707031 396.492188 303.65625 392.09375 302.980469 C 392.28125 302.496094 400.003906 301.859375 403.300781 302 C 406.746094 302.132812 412.378906 302.996094 416.554688 302.769531 C 418.0625 302.683594 419.34375 302.421875 420.765625 302.269531 C 422.191406 302.117188 423.894531 302.527344 425.460938 302.878906 C 424.101562 302.058594 421.320312 301.765625 419.183594 301.828125 C 417.046875 301.890625 415.089844 302.191406 412.828125 302.0625 C 409.515625 301.878906 406.269531 300.808594 402.941406 300.578125 C 398.574219 300.28125 395.214844 301.511719 390.839844 301.234375 C 388.402344 301.078125 386.128906 300.355469 383.675781 300.023438 C 377.558594 299.1875 367.417969 300.472656 358.597656 299.972656 C 354.039062 299.710938 348.839844 299.796875 344.957031 298.671875 C 341.816406 297.761719 335.355469 293.722656 335.015625 293.179688 C 334.042969 291.628906 338.445312 290.488281 341.816406 290.828125 C 345.1875 291.167969 347.742188 291.613281 351.121094 291.9375 C 355.210938 292.332031 359.589844 292.195312 363.683594 292.003906 C 367.050781 291.84375 374.074219 291.597656 377.460938 291.878906 C 383.359375 292.351562 385.667969 293.316406 391.558594 293.824219 C 388.234375 293.09375 384.851562 292.429688 381.578125 291.65625 C 377.632812 290.714844 372.078125 290.855469 369.800781 290.863281 C 346.875 290.980469 347.914062 287.082031 334.238281 286.230469 C 327.894531 285.847656 316.800781 285.714844 310.441406 285.914062 C 306.265625 286.042969 302.089844 286.96875 297.910156 287.007812 C 295.75 287.027344 293.597656 287.039062 291.4375 287.054688 C 290.398438 287.054688 289.113281 285.578125 288.695312 285.964844 C 286.722656 285.765625 281.636719 286.753906 281.382812 286.773438 C 278.507812 286.996094 275.261719 286.886719 272.523438 287.320312 C 270.304688 287.671875 266.300781 288.636719 265.03125 289.632812 C 261.945312 290.949219 258.933594 292.433594 255.046875 293.105469 C 253.417969 293.390625 251.683594 293.519531 250.101562 293.871094 C 246.621094 294.644531 244.421875 296.359375 241.117188 297.308594 C 237.882812 298.234375 233.976562 298.328125 230.335938 298.230469 C 226.699219 298.132812 223.058594 297.875 219.398438 298.191406 C 215.738281 298.503906 211.929688 299.550781 210.546875 301.179688 C 213.855469 299.171875 220.023438 298.953125 225.105469 299.273438 C 230.1875 299.585938 235.636719 300.191406 240.441406 299.078125 C 244 298.253906 246.59375 296.578125 250.308594 295.945312 C 251.617188 295.722656 253.265625 295.6875 254.09375 296.171875 C 254.839844 296.609375 254.429688 297.257812 254.164062 297.832031 C 252.855469 300.632812 250.285156 301.011719 247.484375 302.300781 C 245.464844 303.230469 243.265625 303.640625 240.761719 304.246094 C 236.582031 305.261719 231.863281 305.941406 227.308594 306.355469 C 222.75 306.761719 217.960938 307.453125 214.71875 309.078125 C 212.851562 310.015625 211.652344 311.183594 209.910156 312.160156 C 205.914062 314.410156 200.136719 315.972656 198.382812 318.6875 C 197.390625 320.21875 197.273438 321.550781 197.195312 323.113281 C 197.117188 324.628906 195.96875 326.167969 193.972656 327.441406 C 196.257812 325.929688 198.328125 324.863281 199.242188 323.101562 C 200.253906 321.15625 199.644531 319.226562 202.4375 317.621094 C 204.839844 316.234375 209.101562 314.238281 211.769531 312.945312 C 213.453125 312.128906 214.597656 311.566406 216.148438 310.691406 C 219.632812 308.726562 223.898438 308.433594 229.0625 307.753906 C 234.226562 307.078125 240.570312 305.925781 245.535156 304.941406 C 250.503906 303.957031 255.539062 301.605469 257.066406 299.195312 C 257.765625 298.089844 257.445312 297.5 258.230469 296.402344 C 259.632812 294.453125 263.363281 293.015625 267.25 292.039062 C 271.140625 291.070312 272.96875 290.066406 279.660156 289.992188 C 281.09375 289.972656 288.507812 289.285156 291.597656 291.105469 C 293.269531 292.082031 291.476562 293.277344 290.078125 294.390625 C 286.890625 296.925781 280.988281 298.382812 275.753906 300.039062 C 270.515625 301.6875 265.269531 304.023438 264.945312 306.929688 C 264.757812 308.585938 265.015625 310.132812 266.667969 311.777344 C 268.144531 313.25 269.9375 314.488281 264.335938 315.464844 C 261.375 315.980469 256.265625 315.757812 253.390625 316.390625 C 250.335938 317.066406 248.933594 318.515625 246.460938 319.609375 C 243.0625 321.101562 238.441406 321.117188 233.914062 321.414062 C 226.988281 321.871094 220.804688 324.429688 218.476562 327.492188 C 219.863281 326.257812 222.882812 325.507812 225.371094 324.640625 C 230.992188 322.6875 238.316406 323.28125 242.730469 322.597656 C 241.089844 324.863281 243.445312 328.59375 244.585938 330.867188 C 245.847656 333.371094 243.628906 333.402344 243.167969 336.535156 C 242.839844 338.730469 244.78125 341.277344 249.152344 342.003906 C 246.484375 341.007812 245.859375 339.203125 246.21875 337.578125 C 246.578125 335.957031 247.71875 334.367188 247.816406 332.738281 C 248.027344 329.386719 243.207031 325.472656 247.296875 322.640625 C 250.308594 320.554688 251.117188 318.925781 255.914062 318.078125 C 262.972656 316.835938 270.441406 317.628906 272.769531 314.820312 C 273.789062 313.589844 271.769531 311.894531 271.226562 310.621094 C 268.089844 303.25 282.503906 301.511719 283.628906 302.023438 C 285.222656 302.734375 281.671875 305.054688 284.164062 307.183594 C 285.84375 308.621094 289.964844 309.253906 290.894531 310.84375 C 291.753906 312.324219 288.972656 313.722656 288.152344 315.230469 C 286.445312 318.355469 293.347656 321.5 290.996094 324.535156 C 288.746094 327.445312 280.40625 327.726562 274.753906 329.328125 C 266.335938 331.714844 264.742188 338.035156 271.765625 341.089844 C 267.035156 336.945312 268.890625 332.074219 276.8125 330.804688 C 280.296875 330.25 284.453125 329.742188 287.617188 328.851562 C 290.714844 327.980469 292.851562 325.296875 296.421875 325.21875 C 299.082031 325.15625 301.039062 328.308594 302.320312 329.398438 C 303.605469 330.488281 304.25 331.734375 305.589844 332.808594 C 307.785156 334.5625 311.925781 336.074219 311.367188 338.113281 C 311.085938 339.125 310.71875 339.859375 310.679688 341.078125 C 313.53125 339.199219 313.785156 336.53125 311.289062 334.574219 C 309.761719 333.382812 307.316406 332.4375 306.464844 331.097656 C 305.90625 330.21875 303.785156 326.609375 302.9375 325.785156 C 299.847656 322.796875 296.285156 323.425781 294.019531 320.28125 C 289.355469 313.8125 299.300781 314.082031 297.148438 311.144531 C 295.246094 308.542969 287.257812 307.1875 288.019531 304.441406 C 288.546875 302.550781 293.082031 301.496094 294.972656 299.800781 C 295.796875 299.058594 296.09375 298.214844 296.941406 297.476562 C 298.402344 296.21875 301.550781 295.441406 304.554688 295.597656 C 307.558594 295.753906 308.308594 297.34375 309.089844 298.710938 C 310.8125 301.726562 305.898438 304.285156 307.699219 307.292969 C 308.261719 308.226562 309.640625 309.078125 309.507812 310.050781 C 309.382812 310.964844 307.949219 311.707031 307.015625 312.515625 C 304.867188 314.375 305.5 316.84375 308.511719 318.382812 C 311.578125 319.949219 316.339844 320.4375 320.355469 321.425781 C 324.371094 322.421875 328.054688 324.574219 326.246094 326.535156 C 328.710938 324.875 328.34375 322.417969 325.402344 320.945312 C 322.957031 319.714844 319.292969 319.253906 316.140625 318.457031 C 312.988281 317.664062 310.007812 316.136719 310.84375 314.492188 C 311.578125 313.054688 314.96875 312.117188 315.324219 310.65625 C 315.476562 310.027344 315.503906 309.355469 314.972656 308.777344 C 310.472656 303.871094 316.210938 299.605469 328.964844 304.734375 C 333.210938 306.445312 329.6875 309.539062 333.015625 310.753906 C 336.835938 312.144531 346.835938 310.367188 349.035156 312.398438 C 351.105469 314.300781 343.753906 317.84375 343.949219 319.976562 C 344.144531 322.113281 348.433594 323.726562 349.402344 325.820312 C 350.746094 328.71875 345.453125 331.335938 344.398438 334.269531 C 343.488281 336.796875 346.125 339.523438 350.773438 340.859375 C 346.625 339.398438 346.847656 336.414062 348.550781 334.117188 C 350.253906 331.808594 353.050781 329.570312 352.695312 327.140625 C 352.375 324.929688 349.460938 322.96875 348.566406 320.785156 C 347.667969 318.601562 350.464844 316.335938 355.15625 316.035156 C 366.476562 315.324219 362.214844 321.449219 367.070312 323.839844 C 371.617188 326.078125 383.296875 327.527344 383.285156 331.6875 C 383.28125 333.578125 382.867188 336.015625 379.347656 336.972656 C 386.308594 335.34375 388.488281 330.613281 383.542969 327.757812 C 379.453125 325.398438 366.632812 322.65625 368.726562 320.382812 C 368.046875 321.121094 380.277344 321.753906 390.234375 320.613281 C 396.09375 319.9375 402.226562 321.683594 403.871094 324.363281 C 402.492188 322.113281 399.5 320.347656 395.214844 319.75 C 390.929688 319.148438 387.734375 319.628906 383.316406 319.707031 C 378.898438 319.777344 372.839844 320.085938 369.71875 318.589844 C 367.425781 317.488281 367.542969 315.261719 364.796875 314.410156 C 362.273438 313.625 358.808594 313.695312 356.492188 312.777344 C 354.683594 312.066406 354 310.90625 352.460938 310.066406 C 347.859375 307.539062 336.605469 311.117188 336.308594 307.847656 C 335.933594 303.675781 330.449219 301.515625 324.964844 300.765625 C 321.355469 300.273438 317.703125 299.460938 315.765625 297.949219 C 313.828125 296.441406 314.207031 294.203125 317.316406 293.21875 C 320.4375 292.234375 324.84375 292.878906 327.671875 294.0625 C 330.5 295.242188 332.3125 296.859375 334.714844 298.238281 C 340.464844 301.515625 351.164062 302.707031 360.050781 302.304688 C 362.65625 302.15625 378.519531 301.707031 382.289062 309.644531 C 383.234375 311.632812 385.191406 313.832031 389.226562 314.707031 C 394.058594 315.75 400.386719 312.8125 405.121094 313.984375 C 409.039062 314.941406 409.726562 318.554688 412.046875 320.261719 C 414.660156 322.171875 419.742188 322.746094 424.15625 323.765625 C 417.429688 322.210938 413.992188 319.695312 411.835938 317.402344 C 409.382812 314.804688 408 311.34375 400.792969 312.089844 " fill-opacity="1" fill-rule="nonzero"/><g clip-path="url(#bd0cb828c3)"><path fill="#2a6b84" d="M 240.121094 321.773438 C 245.210938 322.8125 250.511719 323.242188 251.140625 320.285156 C 252.894531 312.0625 259.09375 309.792969 258.441406 308.742188 C 258.1875 308.328125 255.984375 308.480469 252.328125 309.496094 C 250.53125 309.996094 245.167969 312.773438 243.386719 313.355469 C 242.472656 313.65625 241.710938 314.164062 241.0625 314.707031 C 238.441406 316.886719 233.929688 317.449219 230.472656 318.734375 C 228.601562 319.433594 227.042969 321.175781 226.246094 321.59375 C 227.164062 319.710938 228.578125 319.09375 229.335938 318.625 C 230.679688 317.792969 231.851562 316.980469 233.082031 316.660156 C 235.128906 316.125 236.410156 315.96875 237.898438 314.773438 C 241.5 311.878906 243.519531 310.539062 247.011719 309.738281 C 246.863281 309.09375 240.726562 308.03125 238.105469 308.113281 C 235.363281 308.195312 230.882812 309.183594 227.5625 308.722656 C 226.359375 308.554688 225.339844 308.152344 224.207031 307.894531 C 223.074219 307.636719 221.714844 308.125 220.46875 308.542969 C 221.550781 307.476562 223.765625 307.183594 225.464844 307.351562 C 227.164062 307.515625 228.726562 307.992188 230.523438 307.898438 C 233.15625 307.757812 235.738281 306.414062 238.386719 306.214844 C 241.855469 305.945312 244.53125 307.691406 248.003906 307.429688 C 249.941406 307.28125 251.75 306.367188 253.699219 305.980469 C 258.554688 305.007812 266.605469 306.914062 273.605469 306.351562 C 277.21875 306.058594 281.34375 306.226562 284.425781 304.773438 C 286.914062 303.601562 292.042969 298.332031 292.3125 297.625 C 293.085938 295.597656 289.59375 294.070312 286.917969 294.480469 C 284.242188 294.890625 282.21875 295.449219 279.539062 295.835938 C 276.292969 296.300781 272.816406 296.050781 269.566406 295.722656 C 266.890625 295.453125 261.316406 294.976562 258.625 295.257812 C 253.9375 295.746094 252.105469 296.96875 247.421875 297.476562 C 250.0625 296.597656 252.75 295.804688 255.351562 294.855469 C 258.488281 293.710938 262.898438 294.035156 264.710938 294.089844 C 282.910156 294.679688 282.082031 289.464844 292.9375 288.503906 C 297.964844 288.070312 306.765625 287.9375 311.808594 288.1875 C 315.113281 288.34375 318.425781 289.535156 321.738281 289.558594 C 323.449219 289.566406 325.160156 289.566406 326.867188 289.566406 C 327.695312 289.5625 328.71875 287.628906 329.046875 288.125 C 330.609375 287.84375 333.832031 289.183594 334.238281 289.09375 C 334.433594 289.046875 334.640625 289.070312 334.839844 289.09375 C 337.117188 289.34375 339.691406 289.15625 341.863281 289.671875 C 343.617188 290.09375 346.789062 291.273438 347.792969 292.53125 C 350.238281 294.179688 352.617188 296.042969 355.695312 296.820312 C 356.988281 297.148438 358.363281 297.273438 359.613281 297.6875 C 362.367188 298.601562 364.105469 300.761719 366.722656 301.894531 C 369.285156 303 372.382812 303.003906 375.269531 302.761719 C 378.152344 302.511719 381.042969 302.050781 383.945312 302.328125 C 386.847656 302.601562 389.867188 303.800781 390.953125 305.859375 C 388.34375 303.386719 383.445312 303.339844 379.414062 303.929688 C 375.378906 304.511719 371.054688 305.46875 367.253906 304.167969 C 364.433594 303.199219 362.382812 301.105469 359.445312 300.382812 C 358.402344 300.128906 357.097656 300.117188 356.441406 300.769531 C 355.847656 301.355469 356.171875 302.183594 356.378906 302.917969 C 357.402344 306.515625 359.441406 306.941406 361.65625 308.535156 C 363.253906 309.6875 364.996094 310.15625 366.976562 310.867188 C 370.289062 312.0625 374.023438 312.796875 377.632812 313.175781 C 381.246094 313.550781 385.042969 314.273438 387.605469 316.257812 C 389.082031 317.398438 390.027344 318.859375 391.40625 320.066406 C 394.566406 322.828125 399.144531 324.617188 400.519531 328.058594 C 401.300781 330.007812 401.382812 331.738281 401.441406 333.757812 C 401.496094 335.71875 402.394531 337.671875 403.976562 339.242188 C 402.167969 337.375 400.53125 336.074219 399.8125 333.828125 C 399.019531 331.34375 399.515625 328.820312 397.308594 326.847656 C 395.410156 325.148438 392.039062 322.726562 389.929688 321.15625 C 388.597656 320.160156 387.691406 319.46875 386.464844 318.398438 C 383.710938 315.984375 380.328125 315.757812 376.234375 315.046875 C 372.148438 314.339844 367.121094 313.042969 363.191406 311.90625 C 359.257812 310.765625 355.273438 307.847656 354.074219 304.757812 C 353.523438 303.339844 353.777344 302.566406 353.160156 301.164062 C 352.058594 298.671875 349.105469 296.890625 346.023438 295.703125 C 342.945312 294.515625 341.5 293.246094 336.199219 293.246094 C 335.0625 293.246094 329.183594 292.445312 326.730469 294.835938 C 325.40625 296.125 326.824219 297.660156 327.925781 299.09375 C 330.449219 302.355469 335.121094 304.167969 339.265625 306.222656 C 343.410156 308.277344 347.558594 311.191406 347.804688 314.957031 C 347.945312 317.097656 347.742188 319.109375 346.425781 321.277344 C 345.253906 323.21875 343.828125 324.863281 348.261719 326.007812 C 350.605469 326.613281 354.648438 326.191406 356.925781 326.941406 C 359.339844 327.734375 360.449219 329.578125 362.402344 330.917969 C 365.089844 332.761719 368.75 332.644531 372.335938 332.890625 C 377.820312 333.261719 382.710938 336.363281 384.542969 340.242188 C 383.449219 338.6875 381.0625 337.824219 379.089844 336.789062 C 374.644531 334.449219 368.839844 335.441406 365.34375 334.6875 C 366.632812 337.570312 364.757812 342.46875 363.84375 345.445312 C 362.835938 348.726562 364.59375 348.703125 364.945312 352.746094 C 365.195312 355.574219 363.652344 358.925781 360.1875 359.996094 C 362.308594 358.632812 362.804688 356.273438 362.527344 354.183594 C 362.25 352.09375 361.351562 350.066406 361.277344 347.964844 C 361.125 343.625 364.957031 338.421875 361.726562 334.867188 C 359.351562 332.25 358.71875 330.160156 354.921875 329.191406 C 349.332031 327.753906 343.417969 328.945312 341.585938 325.351562 C 340.78125 323.773438 342.386719 321.53125 342.816406 319.871094 C 345.328125 310.261719 333.910156 308.257812 333.019531 308.925781 C 331.753906 309.871094 334.558594 312.835938 332.582031 315.640625 C 331.246094 317.53125 327.980469 318.410156 327.242188 320.496094 C 326.554688 322.433594 328.753906 324.214844 329.398438 326.15625 C 330.742188 330.1875 325.273438 334.390625 327.125 338.300781 C 328.898438 342.046875 335.5 342.257812 339.96875 344.210938 C 346.625 347.125 347.863281 355.269531 342.296875 359.398438 C 346.054688 353.910156 344.601562 347.648438 338.332031 346.171875 C 335.578125 345.527344 332.292969 344.945312 329.789062 343.851562 C 327.339844 342.777344 325.652344 339.328125 322.828125 339.273438 C 320.726562 339.234375 319.167969 343.371094 318.152344 344.8125 C 317.132812 346.25 316.621094 347.882812 315.558594 349.300781 C 313.816406 351.621094 310.539062 353.65625 310.980469 356.3125 C 311.195312 357.625 311.488281 358.578125 311.515625 360.167969 C 309.261719 357.761719 309.066406 354.277344 311.046875 351.691406 C 312.253906 350.113281 314.191406 348.84375 314.867188 347.085938 C 315.3125 345.929688 317 341.195312 317.671875 340.109375 C 320.125 336.179688 322.941406 336.941406 324.742188 332.816406 C 328.453125 324.339844 320.574219 324.824219 322.289062 320.964844 C 323.800781 317.558594 330.132812 315.691406 329.53125 312.132812 C 329.121094 309.683594 325.535156 308.371094 324.039062 306.179688 C 323.386719 305.226562 323.152344 304.128906 322.480469 303.179688 C 321.328125 301.554688 318.832031 300.5625 316.453125 300.785156 C 314.070312 301.007812 313.476562 303.082031 312.855469 304.875 C 311.484375 308.820312 315.371094 312.125 313.9375 316.058594 C 313.492188 317.277344 312.398438 318.402344 312.5 319.667969 C 312.597656 320.859375 313.730469 321.816406 314.46875 322.863281 C 316.167969 325.261719 315.660156 328.492188 313.273438 330.527344 C 310.84375 332.605469 307.074219 333.289062 303.890625 334.613281 C 300.710938 335.945312 297.792969 338.792969 299.21875 341.347656 C 297.269531 339.195312 297.566406 335.96875 299.894531 334.023438 C 301.835938 332.398438 304.738281 331.765625 307.234375 330.699219 C 309.730469 329.632812 312.09375 327.613281 311.433594 325.472656 C 310.855469 323.609375 308.171875 322.410156 307.894531 320.5 C 307.773438 319.6875 307.753906 318.804688 308.175781 318.042969 C 311.75 311.613281 307.210938 306.082031 297.097656 312.800781 C 293.730469 315.046875 296.515625 319.097656 293.878906 320.699219 C 290.847656 322.53125 282.929688 320.171875 281.183594 322.835938 C 279.542969 325.339844 285.367188 330.023438 285.210938 332.824219 C 285.054688 335.640625 281.652344 337.773438 280.886719 340.53125 C 279.824219 344.363281 284.011719 347.792969 284.84375 351.644531 C 285.5625 354.964844 283.476562 358.574219 279.796875 360.378906 C 283.078125 358.414062 282.902344 354.492188 281.558594 351.464844 C 280.210938 348.4375 277.996094 345.492188 278.277344 342.285156 C 278.535156 339.367188 280.839844 336.769531 281.550781 333.890625 C 282.261719 331.015625 280.046875 328.027344 276.332031 327.609375 C 267.359375 326.613281 270.738281 334.738281 266.894531 337.898438 C 263.289062 340.855469 254.03125 342.722656 254.046875 348.28125 C 254.050781 350.804688 254.386719 354.066406 257.171875 355.347656 C 251.660156 353.171875 249.921875 346.808594 253.835938 343.03125 C 257.078125 339.90625 267.234375 336.335938 265.578125 333.304688 C 266.113281 334.285156 256.421875 335.066406 248.519531 333.40625 C 243.871094 332.429688 239.007812 334.667969 237.710938 338.269531 C 238.796875 335.246094 241.167969 332.921875 244.566406 332.179688 C 247.964844 331.4375 250.503906 332.125 254.007812 332.277344 C 257.511719 332.425781 262.316406 332.878906 264.789062 330.914062 C 266.605469 329.46875 266.511719 326.515625 268.6875 325.40625 C 270.691406 324.386719 273.4375 324.496094 275.273438 323.300781 C 276.707031 322.367188 277.246094 320.84375 278.472656 319.742188 C 282.117188 316.449219 291.035156 321.183594 291.269531 316.882812 C 291.570312 311.394531 295.921875 308.582031 300.273438 307.601562 C 303.132812 306.953125 306.027344 305.882812 307.566406 303.902344 C 309.105469 301.933594 308.808594 299.007812 306.34375 297.726562 C 303.875 296.441406 300.378906 297.269531 298.132812 298.816406 C 295.890625 300.355469 294.453125 302.472656 292.542969 304.265625 C 287.980469 308.546875 279.5 310.0625 272.453125 309.417969 C 270.386719 309.214844 257.792969 308.332031 254.8125 318.851562 C 254.0625 321.492188 252.511719 324.402344 249.308594 325.511719 C 245.476562 326.835938 240.449219 322.761719 236.6875 324.230469 C 233.578125 325.441406 233.042969 330.308594 231.199219 332.574219 C 229.136719 335.113281 225.097656 335.785156 221.59375 337.082031 C 226.933594 335.109375 229.65625 331.757812 231.363281 328.707031 C 233.304688 325.238281 234.390625 320.605469 240.121094 321.773438 " fill-opacity="1" fill-rule="nonzero"/></g><path fill="#2a6b84" d="M 383.464844 166.738281 L 384.382812 166.394531 L 384.804688 166.527344 C 389.023438 167.863281 392.726562 168.816406 396.125 169.445312 C 399.449219 170.046875 402.847656 170.46875 406.277344 170.722656 C 405.28125 170.574219 404.292969 170.414062 403.316406 170.242188 C 399.496094 169.558594 395.035156 168.367188 390.058594 166.707031 L 386.601562 165.554688 L 390.925781 163.957031 C 403.71875 159.269531 411.996094 153.371094 417.324219 148.019531 C 412.824219 151.027344 407.582031 153.597656 402.457031 155.890625 L 400.164062 156.917969 L 400.679688 154.460938 C 401.457031 150.761719 402.496094 147.660156 403.777344 145.234375 C 403.097656 146.214844 402.457031 147.269531 401.882812 148.398438 C 400.757812 150.597656 399.824219 153.410156 399.121094 156.746094 L 398.980469 157.402344 L 398.359375 157.664062 C 391.046875 160.726562 383.132812 163.695312 375.484375 166.5625 C 367.816406 169.441406 360.574219 172.160156 354.386719 174.792969 L 350.835938 176.300781 L 352.78125 172.96875 C 354.160156 170.597656 355.3125 168.394531 356.292969 166.222656 C 357.6875 163.144531 359.128906 159.242188 360.648438 155.105469 L 361.042969 154.03125 L 361.859375 153.964844 C 365.996094 153.632812 369.390625 153.121094 372.230469 152.402344 C 373.183594 152.164062 374.109375 151.902344 375.007812 151.621094 C 371.816406 152.308594 367.898438 152.785156 363.324219 153.039062 L 361.367188 153.152344 L 362.054688 151.316406 C 364.859375 143.816406 369.117188 132.429688 376.085938 123.027344 C 371.53125 127.300781 367.097656 132.855469 364.085938 139.867188 C 363.742188 140.660156 363.410156 141.445312 363.085938 142.21875 L 361.625 145.722656 L 360.664062 142.050781 C 359.550781 137.789062 358.917969 133.964844 358.773438 130.683594 C 358.6875 128.609375 358.6875 125.824219 358.988281 122.589844 C 358.085938 126.875 357.605469 131.734375 357.988281 136.996094 C 358.234375 140.390625 358.984375 144.3125 360.222656 148.644531 L 360.34375 149.058594 L 360.0625 149.785156 C 356.171875 159.769531 353.398438 168.589844 344.941406 178.796875 L 343.546875 179.867188 C 338.714844 182.4375 333.910156 185.46875 329.269531 188.875 L 327.683594 190.039062 L 327.261719 188.117188 C 325.835938 181.660156 325.210938 175.945312 325.40625 171.136719 C 325.523438 168.226562 325.902344 164.097656 326.933594 159.292969 C 325.011719 164.898438 323.570312 171.46875 323.496094 178.65625 C 323.453125 182.394531 323.898438 186.691406 324.816406 191.425781 L 324.964844 192.179688 L 324.371094 192.664062 C 318.925781 197.082031 314.941406 201.042969 312.554688 203.582031 L 310.933594 205.3125 L 310.378906 203.007812 C 309.527344 199.507812 308.75 195.308594 308.125 191.933594 C 307.582031 188.996094 307.113281 186.460938 306.804688 185.472656 C 305.34375 180.855469 308.046875 152.652344 313.886719 134.671875 L 313.980469 134.378906 L 314.816406 133.550781 C 317.855469 130.523438 320.257812 128.132812 323.277344 125.300781 L 324.863281 123.777344 C 331.28125 117.625 340.496094 108.792969 348.636719 97.570312 C 345.140625 102.011719 341.078125 106.445312 336.371094 110.632812 C 329.859375 116.464844 323.820312 122 318.414062 127.097656 L 314.742188 130.164062 C 315.421875 128.203125 317.683594 121.851562 318.359375 119.964844 C 321.050781 112.355469 325.707031 99.1875 327.429688 83.285156 C 326.667969 88.28125 325.496094 93.429688 323.78125 98.585938 L 323.132812 100.539062 L 320.609375 98.050781 C 317.347656 94.84375 314.535156 92.074219 312.542969 88.664062 C 311.703125 87.230469 310.875 85.769531 310.089844 84.238281 C 311.113281 86.609375 312.417969 89.101562 314.070312 91.695312 C 315.578125 94.0625 318.328125 97.460938 322.023438 101.515625 L 322.546875 102.089844 L 320.5625 107.507812 C 310.242188 135.699219 302.78125 156.070312 300.445312 171.679688 L 299.929688 175.105469 L 298.089844 172.167969 C 293.480469 164.8125 289.152344 156.714844 285.21875 148.097656 L 284.921875 147.449219 L 285.316406 146.859375 C 287.953125 142.878906 289.988281 139.21875 291.367188 135.976562 C 294.429688 128.804688 295.519531 122.089844 295.652344 116.398438 C 294.808594 121.882812 293.308594 126.488281 292.109375 129.558594 C 290.628906 133.347656 288.21875 137.742188 284.949219 142.617188 L 283.632812 144.578125 L 282.707031 142.402344 C 279.15625 134.058594 275.914062 125.167969 273.078125 115.972656 L 272.894531 115.378906 L 273.257812 114.863281 C 275.992188 110.964844 277.933594 107.613281 279.195312 104.613281 C 280.332031 101.921875 281.085938 99.324219 281.558594 96.882812 C 281.164062 98.199219 280.757812 99.347656 280.390625 100.296875 C 279.132812 103.546875 276.972656 107.378906 273.964844 111.6875 L 272.429688 113.886719 L 271.683594 111.316406 C 268.191406 99.3125 265.851562 88.480469 264.34375 79.949219 C 264.65625 84.980469 265.34375 91.039062 266.722656 98.230469 L 267.3125 101.292969 L 264.742188 99.527344 C 259.09375 95.652344 254.832031 92.140625 251.722656 88.792969 C 251.550781 88.609375 251.375 88.417969 251.203125 88.226562 C 252.636719 90.097656 254.242188 91.957031 256.03125 93.773438 C 258.898438 96.703125 262.609375 99.738281 267.371094 103.0625 L 267.78125 103.347656 L 267.890625 103.832031 C 269.929688 112.960938 272.859375 122.917969 276.597656 133.421875 L 277.5625 136.140625 L 274.898438 135.03125 C 264.386719 130.660156 238.667969 119.203125 226.851562 107.253906 C 226.566406 106.960938 226.28125 106.660156 226 106.351562 C 227.503906 108.265625 229.195312 110.160156 231.105469 111.992188 C 242.34375 122.78125 262.257812 132.765625 276.796875 140.054688 L 277.589844 140.449219 L 277.765625 140.910156 C 278.34375 142.433594 278.929688 143.976562 279.523438 145.550781 C 282.886719 154.445312 286.695312 164.535156 291.875 175.40625 L 293.003906 177.773438 L 290.441406 177.207031 C 283.0625 175.570312 278.433594 173.605469 273.070312 171.332031 L 272.117188 170.925781 C 265.171875 167.980469 258.636719 164.421875 252.78125 160.4375 C 259.253906 165.996094 268.128906 172.050781 279.675781 176.695312 C 281.496094 177.433594 282.914062 178.128906 284.28125 178.796875 C 286.816406 180.042969 289.011719 181.117188 292.996094 182.054688 L 293.582031 182.191406 L 293.851562 182.726562 C 294.324219 183.679688 297.828125 203.136719 297.863281 203.328125 L 298.269531 205.515625 C 298.390625 205.863281 295.742188 204.492188 295.769531 204.511719 C 295.433594 204.269531 293.230469 203.109375 290.683594 201.769531 C 274.605469 193.304688 231.894531 170.835938 215.515625 151.394531 C 213.605469 149.011719 211.832031 146.273438 210.226562 143.257812 C 212.492188 148.148438 215.539062 153.183594 219.628906 158.015625 C 229.242188 169.441406 243.988281 178.09375 258.25 186.460938 L 263.34375 190.066406 L 258.359375 189.398438 C 234.308594 185.253906 213.210938 179.097656 195.355469 171.023438 C 202.304688 174.652344 211.894531 178.730469 225.261719 182.835938 L 228.507812 183.832031 L 225.300781 185.273438 C 223.019531 186.046875 220.890625 186.632812 218.964844 187.023438 C 217.363281 187.34375 215.734375 187.613281 214.082031 187.824219 C 218.140625 187.695312 222.136719 187.210938 225.980469 186.390625 C 226.554688 186.265625 230.351562 184.6875 230.722656 184.515625 C 242.199219 187.945312 256.082031 191.519531 273.167969 195.449219 L 273.378906 195.496094 L 273.5625 195.613281 C 276.042969 197.171875 278.222656 198.621094 280.234375 200.035156 L 283.074219 202.03125 L 279.617188 202.355469 C 276.234375 202.671875 272.871094 203.558594 269.625 204.992188 C 267.96875 205.722656 266.410156 206.722656 264.761719 207.773438 C 263.503906 208.574219 262.203125 209.40625 260.800781 210.152344 C 254.292969 213.609375 247.128906 214.902344 241.890625 215.84375 C 238.941406 216.371094 235.882812 216.773438 232.800781 217.039062 C 232.835938 217.039062 232.863281 217.039062 232.894531 217.039062 C 238.53125 217.039062 244.148438 216.519531 249.566406 215.496094 L 249.664062 215.472656 L 254.035156 214.800781 L 250.675781 217.753906 C 246.644531 220.78125 242.199219 223.914062 237.210938 226.164062 C 239.863281 225.269531 242.976562 223.980469 246.59375 222.144531 C 248.746094 221.046875 250.996094 219.839844 253.167969 218.667969 C 262.496094 213.648438 272.136719 208.457031 280.636719 208.457031 C 286.574219 208.457031 291.414062 211.074219 295.023438 216.222656 C 298.546875 221.246094 299.390625 227.78125 299.714844 232.257812 C 301.203125 252.660156 297.609375 276.503906 286.515625 286.550781 C 288.941406 286.765625 292.046875 288.394531 294.414062 288.394531 C 295.066406 288.394531 297.78125 289.6875 298.269531 289.660156 C 308.714844 288.9375 317.140625 287.570312 327.40625 287.097656 C 325.449219 281.085938 319.289062 259.402344 321.167969 245.480469 C 324.347656 222.03125 342.117188 219.316406 355.210938 219.316406 C 356.636719 219.316406 358.128906 219.351562 359.90625 219.414062 L 360.429688 219.429688 L 360.789062 219.8125 C 362.671875 221.789062 364.53125 223.496094 366.3125 224.882812 C 369.378906 227.265625 372.605469 229.21875 375.722656 230.804688 C 373.769531 229.449219 372.082031 228.183594 370.742188 227.175781 C 369.132812 225.972656 367.386719 224.292969 365.25 221.90625 L 363.132812 219.542969 L 366.296875 219.777344 C 367.460938 219.863281 368.640625 219.957031 369.84375 220.050781 C 373.617188 220.351562 377.515625 220.664062 381.695312 220.8125 C 383.71875 220.894531 385.675781 220.9375 387.511719 220.9375 C 390.132812 220.9375 392.445312 220.851562 394.492188 220.707031 C 386.597656 220.699219 378.152344 219.28125 369.988281 217.90625 C 364.347656 216.957031 358.511719 215.976562 353.035156 215.5 L 348.390625 215.09375 L 352.585938 213.070312 C 354.332031 212.230469 355.964844 211.328125 357.492188 210.402344 C 353.4375 212.207031 349.828125 213.316406 347.25 213.96875 C 344.554688 214.636719 339.046875 215.707031 336.972656 216.109375 C 336.652344 216.171875 336.257812 216.25 336.257812 216.25 C 327.644531 218.082031 322.25 221.851562 319.242188 224.691406 L 317.582031 226.261719 L 317.007812 223.542969 C 316.238281 219.917969 315.574219 216.789062 316.398438 214.429688 C 319.625 205.171875 333.96875 192.042969 343.125 185.683594 L 343.589844 185.359375 L 347.28125 186.195312 C 363.519531 189.871094 383.734375 194.445312 399.148438 194.445312 C 400.058594 194.4375 400.953125 194.421875 401.839844 194.390625 C 388.558594 193.761719 369.324219 190.0625 349.273438 184.226562 L 346.445312 183.40625 L 348.976562 181.898438 C 359.367188 175.714844 370.535156 171.558594 383.464844 166.738281 " fill-opacity="1" fill-rule="nonzero"/><path fill="#2a6b84" d="M 258.113281 40.640625 C 258.105469 40.671875 249.195312 52.679688 262.484375 61.707031 C 262.480469 61.742188 271.523438 50.191406 258.113281 40.640625 " fill-opacity="1" fill-rule="nonzero"/><path fill="#2a6b84" d="M 165.46875 136.929688 C 165.476562 136.976562 164.417969 146.617188 176.949219 145.875 C 176.960938 145.925781 178.214844 136.050781 165.46875 136.929688 " fill-opacity="1" fill-rule="nonzero"/><path fill="#2a6b84" d="M 178.765625 127.023438 C 178.769531 127.054688 178.222656 134.757812 188.269531 134.050781 C 188.277344 134.082031 189.011719 126.265625 178.765625 127.023438 " fill-opacity="1" fill-rule="nonzero"/><path fill="#2a6b84" d="M 270.125 44.25 C 270.125 44.25 263.855469 49.953125 269.800781 56.40625 C 269.796875 56.40625 276.070312 51.027344 270.125 44.25 " fill-opacity="1" fill-rule="nonzero"/><path fill="#2a6b84" d="M 274.410156 40.59375 C 274.40625 40.601562 272.734375 45.070312 277.777344 48.214844 C 278.101562 46.773438 279.46875 43.835938 274.410156 40.59375 " fill-opacity="1" fill-rule="nonzero"/><path fill="#2a6b84" d="M 310.117188 38.507812 C 310.113281 38.464844 297.425781 46.371094 306.171875 60.0625 C 306.167969 60.015625 318.765625 52.828125 310.117188 38.507812 " fill-opacity="1" fill-rule="nonzero"/><path fill="#2a6b84" d="M 323.480469 36.1875 C 323.476562 36.195312 314.652344 46.976562 328.105469 57.9375 C 328.097656 57.941406 337.0625 47.769531 323.480469 36.1875 " fill-opacity="1" fill-rule="nonzero"/><path fill="#2a6b84" d="M 249.027344 56.332031 C 249.027344 56.394531 242.542969 69.328125 257.667969 75.828125 C 257.667969 75.890625 264.375 63.164062 249.027344 56.332031 " fill-opacity="1" fill-rule="nonzero"/><path fill="#2a6b84" d="M 277.167969 54.015625 C 277.160156 53.953125 262.683594 60.085938 267.394531 74.761719 C 267.390625 74.703125 281.636719 69.246094 277.167969 54.015625 " fill-opacity="1" fill-rule="nonzero"/><path fill="#2a6b84" d="M 288.929688 56.675781 C 288.925781 56.640625 278.1875 60.835938 281.664062 71.835938 C 281.664062 71.800781 292.230469 68.054688 288.929688 56.675781 " fill-opacity="1" fill-rule="nonzero"/><path fill="#2a6b84" d="M 316.816406 59.671875 C 316.816406 59.632812 306.058594 63.125 309.507812 74.351562 C 309.503906 74.3125 320.078125 71.246094 316.816406 59.671875 " fill-opacity="1" fill-rule="nonzero"/><path fill="#2a6b84" d="M 287.925781 37.488281 C 287.917969 37.449219 277.164062 41.691406 280.648438 52.675781 C 280.644531 52.636719 291.226562 48.855469 287.925781 37.488281 " fill-opacity="1" fill-rule="nonzero"/><path fill="#2a6b84" d="M 296.730469 76.511719 C 296.730469 76.464844 285.25 77.921875 285.320312 89.503906 C 285.320312 89.460938 296.515625 88.3125 296.730469 76.511719 " fill-opacity="1" fill-rule="nonzero"/><path fill="#2a6b84" d="M 319.5 65.769531 C 319.496094 65.777344 314.347656 72.925781 323.78125 78.523438 C 323.777344 78.53125 329.042969 71.6875 319.5 65.769531 " fill-opacity="1" fill-rule="nonzero"/><path fill="#2a6b84" d="M 198.921875 80.800781 C 198.925781 80.839844 196.78125 89.386719 207.378906 89.332031 C 207.382812 89.367188 209.699219 80.765625 198.921875 80.800781 " fill-opacity="1" fill-rule="nonzero"/><path fill="#2a6b84" d="M 293.285156 91.496094 C 293.285156 91.460938 283.425781 92.277344 284.019531 102.027344 C 284.019531 102 293.648438 101.449219 293.285156 91.496094 " fill-opacity="1" fill-rule="nonzero"/><path fill="#2a6b84" d="M 339.515625 53.730469 C 339.515625 53.691406 329.628906 53.417969 330.175781 63.203125 C 330.175781 63.171875 339.832031 63.640625 339.515625 53.730469 " fill-opacity="1" fill-rule="nonzero"/><path fill="#2a6b84" d="M 304.867188 92.265625 C 304.867188 92.25 296.902344 93.246094 298.078125 101.132812 C 298.078125 101.117188 305.878906 100.34375 304.867188 92.265625 " fill-opacity="1" fill-rule="nonzero"/><path fill="#2a6b84" d="M 304.9375 75.808594 C 304.9375 75.828125 304.527344 68.699219 295.457031 69.082031 C 295.457031 69.105469 295.65625 75.914062 304.9375 75.808594 " fill-opacity="1" fill-rule="nonzero"/><path fill="#2a6b84" d="M 306.726562 84.3125 C 306.726562 84.332031 306.371094 78.117188 298.464844 78.402344 C 298.464844 78.417969 298.636719 84.375 306.726562 84.3125 " fill-opacity="1" fill-rule="nonzero"/><path fill="#2a6b84" d="M 309.710938 89.210938 C 309.710938 89.21875 307.671875 84.5625 301.761719 86.5 C 301.761719 86.507812 303.617188 91 309.710938 89.210938 " fill-opacity="1" fill-rule="nonzero"/><path fill="#2a6b84" d="M 316.625 100.085938 C 316.625 100.101562 313.90625 93.835938 306.011719 96.347656 C 306.011719 96.363281 308.492188 102.375 316.625 100.085938 " fill-opacity="1" fill-rule="nonzero"/><path fill="#2a6b84" d="M 299.324219 84.183594 C 299.320312 84.167969 291.917969 87.019531 295.378906 94.328125 C 295.375 94.3125 302.683594 91.75 299.324219 84.183594 " fill-opacity="1" fill-rule="nonzero"/><path fill="#2a6b84" d="M 319.929688 54.949219 C 319.929688 54.964844 316.703125 61.238281 324.972656 64.917969 C 324.96875 64.929688 328.328125 58.859375 319.929688 54.949219 " fill-opacity="1" fill-rule="nonzero"/><g clip-path="url(#eb4682e2f5)"><path fill="#2a6b84" d="M 294.136719 33.566406 C 294.136719 33.582031 290.917969 40.058594 299.21875 43.253906 C 299.21875 43.269531 302.566406 36.964844 294.136719 33.566406 " fill-opacity="1" fill-rule="nonzero"/></g><path fill="#2a6b84" d="M 246.386719 45.230469 C 246.386719 45.25 243.21875 52.035156 251.472656 54.242188 C 251.472656 54.257812 254.761719 47.601562 246.386719 45.230469 " fill-opacity="1" fill-rule="nonzero"/><path fill="#2a6b84" d="M 290.011719 117.347656 C 290.011719 117.351562 296.046875 110.351562 287.347656 104.488281 C 287.347656 104.496094 281.261719 111.210938 290.011719 117.347656 " fill-opacity="1" fill-rule="nonzero"/><path fill="#2a6b84" d="M 303.570312 66.820312 C 303.570312 66.851562 305.417969 58.242188 294.472656 56.40625 C 294.472656 56.433594 292.425781 64.640625 303.570312 66.820312 " fill-opacity="1" fill-rule="nonzero"/><path fill="#2a6b84" d="M 299.042969 110.65625 C 299.042969 110.632812 307.601562 110.238281 307.164062 101.78125 C 307.164062 101.761719 298.785156 101.953125 299.042969 110.65625 " fill-opacity="1" fill-rule="nonzero"/><path fill="#2a6b84" d="M 265.464844 150.160156 C 265.464844 150.140625 273.96875 149.230469 273.507812 140.804688 C 273.503906 140.792969 265.179688 141.503906 265.464844 150.160156 " fill-opacity="1" fill-rule="nonzero"/><path fill="#2a6b84" d="M 284.050781 78.488281 C 284.046875 78.464844 292.628906 77.800781 292.179688 69.355469 C 292.175781 69.328125 283.773438 69.804688 284.050781 78.488281 " fill-opacity="1" fill-rule="nonzero"/><path fill="#2a6b84" d="M 289.15625 53.808594 C 289.15625 53.785156 297.765625 53.210938 297.320312 44.761719 C 297.320312 44.734375 288.890625 45.109375 289.15625 53.808594 " fill-opacity="1" fill-rule="nonzero"/><path fill="#2a6b84" d="M 282.492188 117.800781 C 282.488281 117.824219 278.449219 126.332031 289.160156 130.164062 C 289.160156 130.1875 293.367188 121.886719 282.492188 117.800781 " fill-opacity="1" fill-rule="nonzero"/><path fill="#2a6b84" d="M 271.417969 84.15625 C 271.414062 84.179688 267.378906 92.773438 278.121094 96.328125 C 278.121094 96.351562 282.328125 87.9375 271.417969 84.15625 " fill-opacity="1" fill-rule="nonzero"/><path fill="#2a6b84" d="M 273.453125 75.25 C 273.453125 75.269531 271.109375 82.679688 280.5 84.652344 C 280.5 84.671875 283.011719 77.371094 273.453125 75.25 " fill-opacity="1" fill-rule="nonzero"/><path fill="#2a6b84" d="M 315.507812 76.824219 C 315.503906 76.84375 311.421875 85.070312 322.164062 89.632812 C 322.160156 89.648438 326.417969 81.675781 315.507812 76.824219 " fill-opacity="1" fill-rule="nonzero"/><path fill="#2a6b84" d="M 317.289062 150.429688 C 317.289062 150.4375 312.183594 157.691406 321.535156 163.105469 C 321.53125 163.109375 326.746094 156.160156 317.289062 150.429688 " fill-opacity="1" fill-rule="nonzero"/><path fill="#2a6b84" d="M 320.851562 142.804688 C 320.851562 142.808594 317.648438 149.140625 325.84375 152.6875 C 325.839844 152.699219 329.167969 146.582031 320.851562 142.804688 " fill-opacity="1" fill-rule="nonzero"/><path fill="#2a6b84" d="M 313.335938 161.554688 C 313.332031 161.570312 309.285156 169.882812 319.9375 174.25 C 319.933594 174.265625 324.152344 166.21875 313.335938 161.554688 " fill-opacity="1" fill-rule="nonzero"/><path fill="#2a6b84" d="M 313.195312 174.398438 C 313.195312 174.414062 309.152344 182.734375 319.789062 187.078125 C 319.785156 187.089844 324 179.035156 313.195312 174.398438 " fill-opacity="1" fill-rule="nonzero"/><path fill="#2a6b84" d="M 306.027344 127.28125 C 306.027344 127.25 295.679688 126.382812 294.433594 136.679688 C 294.433594 136.652344 304.496094 137.695312 306.027344 127.28125 " fill-opacity="1" fill-rule="nonzero"/><path fill="#2a6b84" d="M 298.597656 120.976562 C 298.601562 120.953125 308.210938 123.457031 311.527344 114.066406 C 311.53125 114.046875 302.203125 111.265625 298.597656 120.976562 " fill-opacity="1" fill-rule="nonzero"/><path fill="#2a6b84" d="M 326.617188 100.933594 C 326.617188 100.910156 336.203125 104.03125 339.640625 94.9375 C 339.644531 94.917969 330.347656 91.5 326.617188 100.933594 " fill-opacity="1" fill-rule="nonzero"/><path fill="#2a6b84" d="M 330.085938 91.113281 C 330.085938 91.085938 340.070312 92.683594 341.371094 83.039062 C 341.375 83.011719 331.640625 81.136719 330.085938 91.113281 " fill-opacity="1" fill-rule="nonzero"/><path fill="#2a6b84" d="M 330.480469 80.222656 C 330.480469 80.199219 340.417969 82.214844 342.226562 72.695312 C 342.230469 72.664062 332.554688 70.359375 330.480469 80.222656 " fill-opacity="1" fill-rule="nonzero"/><path fill="#2a6b84" d="M 331.296875 70.703125 C 331.296875 70.671875 341.242188 72.738281 343.050781 63.226562 C 343.054688 63.199219 333.375 60.84375 331.296875 70.703125 " fill-opacity="1" fill-rule="nonzero"/><path fill="#2a6b84" d="M 368.566406 48.894531 C 368.5625 48.855469 359.246094 53.496094 365.929688 64.445312 C 365.929688 64.410156 375.171875 60.265625 368.566406 48.894531 " fill-opacity="1" fill-rule="nonzero"/><path fill="#2a6b84" d="M 358.683594 111 C 358.6875 111.007812 350.71875 104.207031 342.074219 110.664062 C 342.074219 110.679688 349.675781 117.105469 358.683594 111 " fill-opacity="1" fill-rule="nonzero"/><path fill="#2a6b84" d="M 352.21875 117.886719 C 352.226562 117.886719 343.257812 112.367188 336.070312 120.21875 C 336.074219 120.226562 344.671875 125.480469 352.21875 117.886719 " fill-opacity="1" fill-rule="nonzero"/><path fill="#2a6b84" d="M 340.949219 125.648438 C 340.953125 125.640625 331.621094 120.886719 325.125 129.386719 C 325.125 129.382812 334.082031 133.949219 340.949219 125.648438 " fill-opacity="1" fill-rule="nonzero"/><path fill="#2a6b84" d="M 354.800781 68.292969 C 354.800781 68.269531 347.234375 72.90625 354.242188 81.1875 C 354.238281 81.171875 361.789062 76.929688 354.800781 68.292969 " fill-opacity="1" fill-rule="nonzero"/><path fill="#2a6b84" d="M 376.78125 67.574219 C 376.785156 67.554688 368.019531 63.984375 365.203125 72.15625 C 365.207031 72.140625 373.703125 75.644531 376.78125 67.574219 " fill-opacity="1" fill-rule="nonzero"/><path fill="#2a6b84" d="M 359.171875 58.828125 C 359.171875 58.824219 353.769531 63.257812 360.363281 69.480469 C 360.359375 69.472656 365.792969 65.347656 359.171875 58.828125 " fill-opacity="1" fill-rule="nonzero"/><path fill="#2a6b84" d="M 378.847656 108.273438 C 378.847656 108.253906 372.238281 111.113281 377.121094 118.335938 C 377.121094 118.320312 383.683594 115.761719 378.847656 108.273438 " fill-opacity="1" fill-rule="nonzero"/><path fill="#2a6b84" d="M 385.265625 102.699219 C 385.265625 102.683594 378.664062 105.402344 383.535156 112.6875 C 383.535156 112.671875 390.09375 110.246094 385.265625 102.699219 " fill-opacity="1" fill-rule="nonzero"/><g clip-path="url(#d19bfedc8b)"><path fill="#2a6b84" d="M 315.425781 33.367188 C 315.425781 33.367188 310.140625 38.273438 316.640625 43.757812 C 316.636719 43.757812 321.957031 39.132812 315.425781 33.367188 " fill-opacity="1" fill-rule="nonzero"/></g><path fill="#2a6b84" d="M 403.695312 77.375 C 403.699219 77.34375 394.882812 77.660156 397.804688 86.898438 C 397.808594 86.867188 406.476562 86.789062 403.695312 77.375 " fill-opacity="1" fill-rule="nonzero"/><path fill="#2a6b84" d="M 408.988281 125.019531 C 408.988281 125.007812 403.816406 128.789062 410.085938 135.125 C 410.085938 135.109375 415.277344 131.640625 408.988281 125.019531 " fill-opacity="1" fill-rule="nonzero"/><path fill="#2a6b84" d="M 435.332031 137.679688 C 435.339844 137.664062 427.808594 135.101562 426.878906 142.113281 C 426.882812 142.105469 434.222656 144.65625 435.332031 137.679688 " fill-opacity="1" fill-rule="nonzero"/><path fill="#2a6b84" d="M 427.5 105.980469 C 427.507812 105.953125 418.519531 103.246094 418.011719 111.816406 C 418.019531 111.792969 426.789062 114.503906 427.5 105.980469 " fill-opacity="1" fill-rule="nonzero"/><path fill="#2a6b84" d="M 418.6875 92.613281 C 418.695312 92.582031 410.042969 91.503906 411.421875 100.234375 C 411.425781 100.203125 419.898438 101.417969 418.6875 92.613281 " fill-opacity="1" fill-rule="nonzero"/><path fill="#2a6b84" d="M 432.027344 145.96875 C 432.03125 145.96875 425.050781 141.75 421.628906 147.691406 C 421.632812 147.691406 428.390625 151.769531 432.027344 145.96875 " fill-opacity="1" fill-rule="nonzero"/><path fill="#2a6b84" d="M 419.390625 135.535156 C 419.394531 135.511719 412.316406 136.402344 415.421875 143.914062 C 415.421875 143.890625 422.394531 143.21875 419.390625 135.535156 " fill-opacity="1" fill-rule="nonzero"/><path fill="#2a6b84" d="M 392.242188 68.304688 C 392.242188 68.289062 386.539062 71.597656 392.320312 78.382812 C 392.320312 78.371094 398.023438 75.375 392.242188 68.304688 " fill-opacity="1" fill-rule="nonzero"/><path fill="#2a6b84" d="M 378.246094 57.71875 C 378.25 57.695312 370.5625 57.359375 371.792969 65.097656 C 371.792969 65.074219 379.324219 65.570312 378.246094 57.71875 " fill-opacity="1" fill-rule="nonzero"/><path fill="#2a6b84" d="M 411.40625 141.59375 C 411.410156 141.570312 404.3125 142.644531 407.425781 150.132812 C 407.429688 150.109375 414.421875 149.257812 411.40625 141.59375 " fill-opacity="1" fill-rule="nonzero"/><path fill="#2a6b84" d="M 422.46875 160.167969 C 422.46875 160.191406 417.964844 153.96875 410.992188 156.929688 C 410.992188 156.949219 415.261719 162.921875 422.46875 160.167969 " fill-opacity="1" fill-rule="nonzero"/><path fill="#2a6b84" d="M 416.355469 166.039062 C 416.355469 166.0625 413.511719 159.410156 405.496094 160.671875 C 405.496094 160.695312 408.117188 167.089844 416.355469 166.039062 " fill-opacity="1" fill-rule="nonzero"/><path fill="#2a6b84" d="M 403.480469 176.90625 C 403.476562 176.925781 400.621094 170.308594 392.578125 171.863281 C 392.578125 171.882812 395.203125 178.261719 403.480469 176.90625 " fill-opacity="1" fill-rule="nonzero"/><path fill="#2a6b84" d="M 415.984375 178.929688 C 415.980469 178.945312 413.140625 172.335938 405.128906 173.695312 C 405.125 173.714844 407.746094 180.085938 415.984375 178.929688 " fill-opacity="1" fill-rule="nonzero"/><path fill="#2a6b84" d="M 427.503906 163.113281 C 427.503906 163.097656 419.914062 161.6875 420.0625 169.039062 C 420.066406 169.023438 427.480469 170.496094 427.503906 163.113281 " fill-opacity="1" fill-rule="nonzero"/><path fill="#2a6b84" d="M 429.40625 175.507812 C 429.40625 175.519531 423.722656 170.035156 417.984375 174.386719 C 417.984375 174.402344 423.425781 179.671875 429.40625 175.507812 " fill-opacity="1" fill-rule="nonzero"/><path fill="#2a6b84" d="M 427.890625 152.863281 C 427.894531 152.871094 421.519531 147.890625 416.789062 153.027344 C 416.789062 153.039062 422.929688 157.832031 427.890625 152.863281 " fill-opacity="1" fill-rule="nonzero"/><path fill="#2a6b84" d="M 382.066406 158.460938 C 382.066406 158.476562 377.9375 152.230469 370.550781 155.375 C 370.550781 155.394531 374.433594 161.410156 382.066406 158.460938 " fill-opacity="1" fill-rule="nonzero"/><path fill="#2a6b84" d="M 390.214844 156.132812 C 390.214844 156.148438 386.109375 149.855469 378.71875 152.84375 C 378.71875 152.859375 382.582031 158.914062 390.214844 156.132812 " fill-opacity="1" fill-rule="nonzero"/><path fill="#2a6b84" d="M 396.832031 152.054688 C 396.832031 152.066406 393.121094 146.324219 386.425781 148.902344 C 386.425781 148.921875 389.921875 154.449219 396.832031 152.054688 " fill-opacity="1" fill-rule="nonzero"/><path fill="#2a6b84" d="M 399.429688 145.789062 C 399.429688 145.792969 395.167969 142.476562 391.761719 146.058594 C 391.761719 146.0625 395.851562 149.300781 399.429688 145.789062 " fill-opacity="1" fill-rule="nonzero"/><path fill="#2a6b84" d="M 381.539062 136.414062 C 381.539062 136.382812 372.871094 139.089844 377.765625 148.269531 C 377.765625 148.238281 386.332031 145.878906 381.539062 136.414062 " fill-opacity="1" fill-rule="nonzero"/><path fill="#2a6b84" d="M 388.757812 134.105469 C 388.757812 134.082031 381.777344 136.253906 385.882812 143.722656 C 385.882812 143.703125 392.789062 141.800781 388.757812 134.105469 " fill-opacity="1" fill-rule="nonzero"/><path fill="#2a6b84" d="M 372.421875 139.441406 C 372.421875 139.425781 365.417969 141.871094 369.546875 149.269531 C 369.546875 149.25 376.476562 147.074219 372.421875 139.441406 " fill-opacity="1" fill-rule="nonzero"/><path fill="#2a6b84" d="M 342.527344 87.964844 C 342.523438 87.960938 337.128906 92.695312 343.734375 98.625 C 343.730469 98.621094 349.160156 94.183594 342.527344 87.964844 " fill-opacity="1" fill-rule="nonzero"/><path fill="#2a6b84" d="M 328.140625 103.496094 C 328.136719 103.492188 322.75 108.433594 329.359375 114.15625 C 329.359375 114.15625 334.78125 109.503906 328.140625 103.496094 " fill-opacity="1" fill-rule="nonzero"/><path fill="#2a6b84" d="M 346.9375 76.8125 C 346.933594 76.804688 340.003906 82.910156 348.636719 90.636719 C 348.632812 90.628906 355.609375 84.929688 346.9375 76.8125 " fill-opacity="1" fill-rule="nonzero"/><path fill="#2a6b84" d="M 349.578125 102.527344 C 349.582031 102.53125 357.703125 108.386719 364.363281 101.394531 C 364.363281 101.402344 356.605469 95.222656 349.578125 102.527344 " fill-opacity="1" fill-rule="nonzero"/><path fill="#2a6b84" d="M 329.730469 148.832031 C 329.734375 148.78125 342.992188 146.613281 339.410156 133.273438 C 339.414062 133.222656 326.359375 135.082031 329.730469 148.832031 " fill-opacity="1" fill-rule="nonzero"/><path fill="#2a6b84" d="M 387.785156 112.726562 C 387.792969 112.6875 401.125 117.136719 403.921875 105.003906 C 403.933594 104.96875 390.984375 99.988281 387.785156 112.726562 " fill-opacity="1" fill-rule="nonzero"/><path fill="#2a6b84" d="M 398.25 100.734375 C 398.261719 100.664062 411.625 102.089844 409.761719 88.84375 C 409.769531 88.777344 396.652344 86.980469 398.25 100.734375 " fill-opacity="1" fill-rule="nonzero"/><path fill="#2a6b84" d="M 393.117188 142.378906 C 393.121094 142.316406 406.027344 141.238281 401.773438 127.957031 C 401.78125 127.898438 389.050781 128.660156 393.117188 142.378906 " fill-opacity="1" fill-rule="nonzero"/><path fill="#2a6b84" d="M 414.277344 134.316406 C 414.285156 134.28125 423.765625 133.988281 420.644531 124.160156 C 420.648438 124.125 411.300781 124.183594 414.277344 134.316406 " fill-opacity="1" fill-rule="nonzero"/><path fill="#2a6b84" d="M 397.164062 126.453125 C 397.167969 126.417969 406.71875 125.789062 403.570312 115.914062 C 403.574219 115.875 394.15625 116.273438 397.164062 126.453125 " fill-opacity="1" fill-rule="nonzero"/><path fill="#2a6b84" d="M 426.953125 134.832031 C 426.960938 134.765625 438.242188 132.785156 431.785156 120.25 C 431.792969 120.183594 420.589844 121.960938 426.953125 134.832031 " fill-opacity="1" fill-rule="nonzero"/><path fill="#2a6b84" d="M 381.417969 81.5 C 381.417969 81.460938 391.589844 76.425781 382.578125 64.699219 C 382.578125 64.65625 372.417969 69.496094 381.417969 81.5 " fill-opacity="1" fill-rule="nonzero"/><path fill="#2a6b84" d="M 333.769531 51.367188 C 333.769531 51.332031 343.3125 49.894531 340.453125 40.273438 C 340.457031 40.234375 331.058594 41.46875 333.769531 51.367188 " fill-opacity="1" fill-rule="nonzero"/><path fill="#2a6b84" d="M 359.179688 56.292969 C 359.171875 56.300781 363.792969 49.367188 354.03125 43.429688 C 354.027344 43.4375 349.304688 50.09375 359.179688 56.292969 " fill-opacity="1" fill-rule="nonzero"/><path fill="#2a6b84" d="M 365.59375 102.359375 C 365.601562 102.316406 379.03125 106.238281 381.84375 93.769531 C 381.851562 93.726562 368.789062 89.304688 365.59375 102.359375 " fill-opacity="1" fill-rule="nonzero"/><path fill="#2a6b84" d="M 354.484375 93.867188 C 354.484375 93.871094 362.003906 99.394531 368.175781 93.011719 C 368.175781 93.015625 360.988281 87.210938 354.484375 93.867188 " fill-opacity="1" fill-rule="nonzero"/><path fill="#2a6b84" d="M 359.71875 86.230469 C 359.722656 86.226562 367.949219 90.949219 372.8125 83.773438 C 372.816406 83.773438 364.902344 78.753906 359.71875 86.230469 " fill-opacity="1" fill-rule="nonzero"/><path fill="#2a6b84" d="M 382.945312 82.523438 C 382.949219 82.488281 373.890625 82.433594 375.722656 91.609375 C 375.722656 91.578125 384.597656 91.839844 382.945312 82.523438 " fill-opacity="1" fill-rule="nonzero"/><path fill="#2a6b84" d="M 405.796875 114.324219 C 405.808594 114.261719 418.984375 115.933594 417.011719 102.945312 C 417.023438 102.878906 404.089844 100.84375 405.796875 114.324219 " fill-opacity="1" fill-rule="nonzero"/><path fill="#2a6b84" d="M 409.304688 122.320312 C 409.316406 122.289062 421.949219 127.03125 424.261719 115.660156 C 424.273438 115.628906 412.003906 110.386719 409.304688 122.320312 " fill-opacity="1" fill-rule="nonzero"/><path fill="#2a6b84" d="M 363.667969 78.65625 C 363.667969 78.648438 371.898438 83.46875 376.757812 76.382812 C 376.761719 76.378906 368.851562 71.261719 363.667969 78.65625 " fill-opacity="1" fill-rule="nonzero"/><path fill="#2a6b84" d="M 340.410156 149.226562 C 340.410156 149.214844 332.597656 147.585938 331 155.253906 C 331.003906 155.246094 338.585938 156.949219 340.410156 149.226562 " fill-opacity="1" fill-rule="nonzero"/><path fill="#2a6b84" d="M 328.203125 170.882812 C 328.207031 170.867188 337.378906 173.074219 339.832031 164.175781 C 339.835938 164.160156 330.917969 161.695312 328.203125 170.882812 " fill-opacity="1" fill-rule="nonzero"/><path fill="#2a6b84" d="M 328.578125 178.101562 C 328.582031 178.09375 337.589844 181.597656 341.734375 172.96875 C 341.734375 172.964844 333.023438 169.191406 328.578125 178.101562 " fill-opacity="1" fill-rule="nonzero"/><path fill="#2a6b84" d="M 329.367188 162.417969 C 329.371094 162.40625 337.230469 164.292969 339.289062 156.671875 C 339.289062 156.660156 331.652344 154.566406 329.367188 162.417969 " fill-opacity="1" fill-rule="nonzero"/><path fill="#2a6b84" d="M 375.601562 105.867188 C 375.601562 105.859375 368.441406 102.109375 364.867188 108.664062 C 364.871094 108.65625 371.785156 112.324219 375.601562 105.867188 " fill-opacity="1" fill-rule="nonzero"/><path fill="#2a6b84" d="M 363.164062 116.378906 C 363.164062 116.378906 370.167969 120.460938 374.453125 114.296875 C 374.457031 114.296875 367.71875 110 363.164062 116.378906 " fill-opacity="1" fill-rule="nonzero"/><path fill="#2a6b84" d="M 382.117188 119.097656 C 382.121094 119.097656 389.089844 123.398438 393.351562 117.488281 C 393.355469 117.492188 386.664062 112.964844 382.117188 119.097656 " fill-opacity="1" fill-rule="nonzero"/><path fill="#2a6b84" d="M 378.863281 124.492188 C 378.867188 124.496094 385.289062 129.402344 390.539062 124.132812 C 390.539062 124.140625 384.402344 119.03125 378.863281 124.492188 " fill-opacity="1" fill-rule="nonzero"/><path fill="#2a6b84" d="M 374.941406 131.027344 C 374.945312 131.03125 381.371094 135.871094 386.621094 130.515625 C 386.625 130.523438 380.484375 125.484375 374.941406 131.027344 " fill-opacity="1" fill-rule="nonzero"/><path fill="#2a6b84" d="M 346.738281 125.496094 C 346.738281 125.511719 346.457031 132.402344 355.390625 133.601562 C 355.386719 133.617188 355.886719 126.835938 346.738281 125.496094 " fill-opacity="1" fill-rule="nonzero"/><path fill="#2a6b84" d="M 345.832031 133.820312 C 345.828125 133.84375 345.5 142.023438 356.105469 143.410156 C 356.101562 143.433594 356.695312 135.367188 345.832031 133.820312 " fill-opacity="1" fill-rule="nonzero"/><path fill="#2a6b84" d="M 360.933594 125.03125 C 360.9375 125.023438 368.558594 127.804688 371.128906 120.738281 C 371.132812 120.730469 363.746094 117.726562 360.933594 125.03125 " fill-opacity="1" fill-rule="nonzero"/><g clip-path="url(#8247fa9688)"><path fill="#2a6b84" d="M 160.550781 148.835938 C 160.566406 148.910156 160.429688 161.382812 177.445312 159.308594 C 177.460938 159.390625 177.859375 146.332031 160.550781 148.835938 " fill-opacity="1" fill-rule="nonzero"/></g><path fill="#2a6b84" d="M 203.144531 89.574219 C 203.144531 89.59375 192.429688 100.390625 202.054688 109.972656 C 202.050781 109.992188 212.773438 99.730469 203.144531 89.574219 " fill-opacity="1" fill-rule="nonzero"/><path fill="#2a6b84" d="M 391.132812 80.785156 C 391.132812 80.726562 380.175781 87.058594 389.695312 100.636719 C 389.695312 100.578125 400.601562 94.953125 391.132812 80.785156 " fill-opacity="1" fill-rule="nonzero"/><path fill="#2a6b84" d="M 348.609375 48.828125 C 348.601562 48.785156 337.523438 56.242188 347.21875 69.277344 C 347.21875 69.234375 358.261719 62.46875 348.609375 48.828125 " fill-opacity="1" fill-rule="nonzero"/><path fill="#2a6b84" d="M 225.148438 66.320312 C 225.148438 66.320312 218.695312 72.117188 223.875 78.179688 C 223.871094 78.179688 230.300781 72.703125 225.148438 66.320312 " fill-opacity="1" fill-rule="nonzero"/><path fill="#2a6b84" d="M 225.328125 60.414062 C 225.328125 60.441406 224.003906 67.796875 233.210938 68.585938 C 233.214844 68.617188 234.710938 61.261719 225.328125 60.414062 " fill-opacity="1" fill-rule="nonzero"/><path fill="#2a6b84" d="M 236.65625 51.300781 C 236.652344 51.34375 228.511719 63.191406 241.328125 70.828125 C 241.328125 70.867188 249.601562 59.378906 236.65625 51.300781 " fill-opacity="1" fill-rule="nonzero"/><path fill="#2a6b84" d="M 171.992188 118.113281 C 172.003906 118.152344 173.769531 127.421875 187.164062 123.824219 C 187.175781 123.871094 185.664062 114.175781 171.992188 118.113281 " fill-opacity="1" fill-rule="nonzero"/><path fill="#2a6b84" d="M 222.863281 133.917969 C 222.867188 133.957031 222.378906 143.851562 235.234375 144.097656 C 235.242188 144.140625 235.996094 134.132812 222.863281 133.917969 " fill-opacity="1" fill-rule="nonzero"/><path fill="#2a6b84" d="M 213.367188 68.820312 C 213.363281 68.867188 203.75 81.132812 216.003906 89.585938 C 216 89.632812 225.703125 77.785156 213.367188 68.820312 " fill-opacity="1" fill-rule="nonzero"/><path fill="#2a6b84" d="M 162.835938 165.847656 C 162.847656 165.867188 167.851562 176.519531 184.609375 169.847656 C 184.625 169.886719 179.957031 158.53125 162.835938 165.847656 " fill-opacity="1" fill-rule="nonzero"/><path fill="#2a6b84" d="M 182.269531 145.023438 C 182.277344 145.101562 176.238281 158.132812 191.15625 162.675781 C 191.164062 162.753906 197.386719 149.703125 182.269531 145.023438 " fill-opacity="1" fill-rule="nonzero"/><path fill="#2a6b84" d="M 231.269531 154.382812 C 231.273438 154.402344 233.5 162.378906 244.207031 159.242188 C 244.210938 159.265625 242.261719 151.148438 231.269531 154.382812 " fill-opacity="1" fill-rule="nonzero"/><path fill="#2a6b84" d="M 233.050781 94.332031 C 233.046875 94.335938 225.171875 101.054688 232.246094 107.875 C 232.242188 107.875 240.117188 101.515625 233.050781 94.332031 " fill-opacity="1" fill-rule="nonzero"/><path fill="#2a6b84" d="M 225.765625 171.203125 C 225.769531 171.21875 222.613281 161.890625 210.28125 166.671875 C 210.289062 166.695312 213.039062 175.566406 225.765625 171.203125 " fill-opacity="1" fill-rule="nonzero"/><path fill="#2a6b84" d="M 227.1875 87.824219 C 227.1875 87.824219 220.324219 93.355469 225.929688 99.261719 C 225.925781 99.261719 232.769531 94.035156 227.1875 87.824219 " fill-opacity="1" fill-rule="nonzero"/><path fill="#2a6b84" d="M 241.191406 79.304688 C 241.195312 79.324219 238.019531 71.519531 227.558594 76.210938 C 227.566406 76.234375 230.386719 83.628906 241.191406 79.304688 " fill-opacity="1" fill-rule="nonzero"/><path fill="#2a6b84" d="M 246.773438 88.570312 C 246.777344 88.59375 243.601562 80.722656 233.128906 85.234375 C 233.136719 85.257812 235.957031 92.726562 246.773438 88.570312 " fill-opacity="1" fill-rule="nonzero"/><path fill="#2a6b84" d="M 252.613281 95.488281 C 252.617188 95.496094 250.394531 89.949219 243.035156 92.941406 C 243.039062 92.949219 245.023438 98.28125 252.613281 95.488281 " fill-opacity="1" fill-rule="nonzero"/><path fill="#2a6b84" d="M 259.558594 92.234375 C 259.558594 92.234375 264.734375 87.785156 259.65625 83.054688 C 259.652344 83.054688 254.484375 87.316406 259.558594 92.234375 " fill-opacity="1" fill-rule="nonzero"/><path fill="#2a6b84" d="M 268.050781 129.230469 C 268.050781 129.234375 273.21875 124.910156 268.15625 120.042969 C 268.15625 120.042969 262.992188 124.167969 268.050781 129.230469 " fill-opacity="1" fill-rule="nonzero"/><path fill="#2a6b84" d="M 355.859375 151.597656 C 355.859375 151.609375 356.933594 145.742188 349.3125 143.972656 C 349.3125 143.980469 348.097656 149.636719 355.859375 151.597656 " fill-opacity="1" fill-rule="nonzero"/><path fill="#2a6b84" d="M 259.316406 101.855469 C 259.316406 101.867188 257.101562 96.273438 249.730469 99.140625 C 249.730469 99.152344 251.714844 104.535156 259.316406 101.855469 " fill-opacity="1" fill-rule="nonzero"/><path fill="#2a6b84" d="M 249.863281 80.871094 C 249.863281 80.875 254.148438 76.253906 248.882812 72.574219 C 248.878906 72.578125 244.582031 77.007812 249.863281 80.871094 " fill-opacity="1" fill-rule="nonzero"/><path fill="#2a6b84" d="M 255.394531 106.242188 C 255.394531 106.246094 258.46875 110.839844 264.789062 107.402344 C 264.792969 107.414062 261.929688 102.722656 255.394531 106.242188 " fill-opacity="1" fill-rule="nonzero"/><path fill="#2a6b84" d="M 253.765625 86.347656 C 253.765625 86.347656 259.175781 82.863281 255.441406 77.847656 C 255.441406 77.84375 250.074219 81.160156 253.765625 86.347656 " fill-opacity="1" fill-rule="nonzero"/><path fill="#2a6b84" d="M 213.261719 120.648438 C 213.257812 120.636719 204.675781 125.339844 208.652344 133.082031 C 208.644531 133.074219 217.128906 128.746094 213.261719 120.648438 " fill-opacity="1" fill-rule="nonzero"/><path fill="#2a6b84" d="M 217.488281 128.875 C 217.484375 128.863281 208.894531 133.453125 212.871094 141.273438 C 212.863281 141.265625 221.359375 137.046875 217.488281 128.875 " fill-opacity="1" fill-rule="nonzero"/><path fill="#2a6b84" d="M 219.199219 138.492188 C 219.199219 138.492188 213.03125 143.324219 217.96875 148.703125 C 217.96875 148.703125 224.113281 144.140625 219.199219 138.492188 " fill-opacity="1" fill-rule="nonzero"/><path fill="#2a6b84" d="M 192.546875 174.921875 C 192.550781 174.921875 188.609375 170.035156 181.347656 175.210938 C 181.351562 175.210938 184.996094 179.96875 192.546875 174.921875 " fill-opacity="1" fill-rule="nonzero"/><path fill="#2a6b84" d="M 212.152344 183.019531 C 212.152344 183.015625 208.191406 177.890625 200.878906 182.820312 C 200.882812 182.820312 204.554688 187.8125 212.152344 183.019531 " fill-opacity="1" fill-rule="nonzero"/><path fill="#2a6b84" d="M 199.507812 169.671875 C 199.507812 169.6875 202.765625 163.152344 195.136719 161.25 C 195.140625 161.265625 191.777344 167.515625 199.507812 169.671875 " fill-opacity="1" fill-rule="nonzero"/><path fill="#2a6b84" d="M 207.460938 172.984375 C 207.460938 173 210.730469 166.488281 203.082031 164.433594 C 203.085938 164.449219 199.714844 170.675781 207.460938 172.984375 " fill-opacity="1" fill-rule="nonzero"/><path fill="#2a6b84" d="M 209.703125 154.074219 C 209.707031 154.082031 206.101562 147.117188 196.433594 152.320312 C 196.441406 152.332031 199.691406 159 209.703125 154.074219 " fill-opacity="1" fill-rule="nonzero"/><path fill="#2a6b84" d="M 209.8125 111.972656 C 209.808594 111.964844 202.632812 116.273438 206.328125 122.632812 C 206.324219 122.628906 213.429688 118.632812 209.8125 111.972656 " fill-opacity="1" fill-rule="nonzero"/><path fill="#2a6b84" d="M 234.75 176.480469 C 234.753906 176.480469 230.769531 171.539062 223.90625 176.222656 C 223.90625 176.222656 227.621094 181.042969 234.75 176.480469 " fill-opacity="1" fill-rule="nonzero"/><path fill="#2a6b84" d="M 234.035156 223.550781 C 234.039062 223.550781 230.066406 218.535156 223.226562 223.042969 C 223.230469 223.042969 226.933594 227.960938 234.035156 223.550781 " fill-opacity="1" fill-rule="nonzero"/><path fill="#2a6b84" d="M 182.375 137.363281 C 182.378906 137.375 183.421875 143.777344 192.210938 141.015625 C 192.214844 141.035156 191.363281 134.503906 182.375 137.363281 " fill-opacity="1" fill-rule="nonzero"/><path fill="#2a6b84" d="M 224.667969 79.269531 C 224.667969 79.257812 216.953125 83.417969 220.449219 90.40625 C 220.445312 90.394531 228.070312 86.570312 224.667969 79.269531 " fill-opacity="1" fill-rule="nonzero"/><path fill="#2a6b84" d="M 274.789062 178.550781 C 274.789062 178.550781 268.644531 172.761719 260.914062 179.269531 C 260.914062 179.269531 266.71875 184.917969 274.789062 178.550781 " fill-opacity="1" fill-rule="nonzero"/><path fill="#2a6b84" d="M 236.617188 189.730469 C 236.613281 189.730469 229.628906 194.371094 234.621094 200.875 C 234.621094 200.875 241.5625 196.527344 236.617188 189.730469 " fill-opacity="1" fill-rule="nonzero"/><path fill="#2a6b84" d="M 244.324219 191.960938 C 244.324219 191.960938 238.933594 195.480469 242.78125 200.558594 C 242.78125 200.558594 248.136719 197.257812 244.324219 191.960938 " fill-opacity="1" fill-rule="nonzero"/><path fill="#2a6b84" d="M 296.703125 144.550781 C 296.699219 144.539062 288.910156 147.464844 292.382812 155.195312 C 292.378906 155.179688 300.070312 152.546875 296.703125 144.550781 " fill-opacity="1" fill-rule="nonzero"/><path fill="#2a6b84" d="M 226.105469 147.160156 C 226.109375 147.167969 228.949219 153.226562 237.316406 149.566406 C 237.320312 149.574219 234.714844 143.394531 226.105469 147.160156 " fill-opacity="1" fill-rule="nonzero"/><path fill="#2a6b84" d="M 240.445312 163.679688 C 240.445312 163.691406 244.21875 171.679688 255.054688 167.226562 C 255.058594 167.246094 251.605469 159.070312 240.445312 163.679688 " fill-opacity="1" fill-rule="nonzero"/><path fill="#2a6b84" d="M 250.488281 172.128906 C 250.492188 172.136719 255.679688 179.535156 265.773438 173.902344 C 265.777344 173.914062 260.921875 166.3125 250.488281 172.128906 " fill-opacity="1" fill-rule="nonzero"/><path fill="#2a6b84" d="M 275.457031 169.574219 C 275.453125 169.574219 282.488281 163.105469 274.710938 156.34375 C 274.710938 156.351562 267.667969 162.535156 275.457031 169.574219 " fill-opacity="1" fill-rule="nonzero"/><path fill="#2a6b84" d="M 264.597656 164.488281 C 264.597656 164.5 270.804688 157.226562 262.117188 151.511719 C 262.117188 151.519531 255.863281 158.480469 264.597656 164.488281 " fill-opacity="1" fill-rule="nonzero"/><path fill="#2a6b84" d="M 254.730469 157.699219 C 254.730469 157.707031 260.539062 151.246094 252.960938 146.011719 C 252.957031 146.023438 247.121094 152.203125 254.730469 157.699219 " fill-opacity="1" fill-rule="nonzero"/><path fill="#2a6b84" d="M 245.378906 151.054688 C 245.378906 151.066406 250.800781 144.273438 242.886719 139.609375 C 242.886719 139.625 237.410156 146.125 245.378906 151.054688 " fill-opacity="1" fill-rule="nonzero"/><path fill="#2a6b84" d="M 260.691406 126.039062 C 260.691406 126.046875 267.757812 118.214844 258.527344 111.847656 C 258.527344 111.859375 251.425781 119.367188 260.691406 126.039062 " fill-opacity="1" fill-rule="nonzero"/><path fill="#2a6b84" d="M 249.203125 119.253906 C 249.203125 119.257812 256.800781 112.21875 248.84375 105.421875 C 248.84375 105.429688 241.25 112.175781 249.203125 119.253906 " fill-opacity="1" fill-rule="nonzero"/><path fill="#2a6b84" d="M 239.871094 112.839844 C 239.867188 112.839844 247.480469 106.957031 241.179688 100.128906 C 241.175781 100.128906 233.605469 105.765625 239.871094 112.839844 " fill-opacity="1" fill-rule="nonzero"/><path fill="#2a6b84" d="M 417.0625 181.925781 C 417.058594 181.964844 420.363281 191.085938 408.914062 191.492188 C 408.910156 191.53125 405.433594 182.386719 417.0625 181.925781 " fill-opacity="1" fill-rule="nonzero"/><path fill="#2a6b84" d="M 427.113281 180.636719 C 427.109375 180.664062 430.269531 188.339844 420.820312 188.839844 C 420.820312 188.867188 417.527344 181.210938 427.113281 180.636719 " fill-opacity="1" fill-rule="nonzero"/><path fill="#2a6b84" d="M 435.226562 176.800781 C 435.226562 176.828125 440.191406 184.121094 432.105469 186.410156 C 432.101562 186.4375 427.066406 179.257812 435.226562 176.800781 " fill-opacity="1" fill-rule="nonzero"/><path fill="#2a6b84" d="M 369.617188 186.773438 C 369.613281 186.808594 368.144531 176.746094 381.039062 177.792969 C 381.035156 177.824219 382.777344 187.402344 369.617188 186.773438 " fill-opacity="1" fill-rule="nonzero"/><path fill="#2a6b84" d="M 384.992188 190.03125 C 384.984375 190.066406 382.394531 180.402344 394.472656 180.488281 C 394.46875 180.523438 397.289062 189.714844 384.992188 190.03125 " fill-opacity="1" fill-rule="nonzero"/><path fill="#2a6b84" d="M 398.203125 191.046875 C 398.203125 191.078125 394.75 182.34375 405.335938 181.511719 C 405.332031 181.542969 408.957031 189.863281 398.203125 191.046875 " fill-opacity="1" fill-rule="nonzero"/><path fill="#2a6b84" d="M 249.476562 142.359375 C 249.480469 142.34375 258.390625 147.773438 266.476562 138.519531 C 266.480469 138.507812 257.921875 132.75 249.476562 142.359375 " fill-opacity="1" fill-rule="nonzero"/><path fill="#2a6b84" d="M 237.554688 136.59375 C 237.554688 136.574219 246.453125 141.765625 254.519531 132.347656 C 254.523438 132.332031 245.972656 126.808594 237.554688 136.59375 " fill-opacity="1" fill-rule="nonzero"/><path fill="#2a6b84" d="M 201.285156 160.050781 C 201.285156 160.050781 205.914062 166.925781 215.964844 161.015625 C 215.972656 161.023438 211.636719 153.90625 201.285156 160.050781 " fill-opacity="1" fill-rule="nonzero"/><path fill="#2a6b84" d="M 188.382812 180.113281 C 188.386719 180.097656 194.765625 185.566406 203.453125 178.046875 C 203.457031 178.039062 197.378906 172.34375 188.382812 180.113281 " fill-opacity="1" fill-rule="nonzero"/><g clip-path="url(#3dbc9b899f)"><path fill="#2a6b84" d="M 160.816406 178.910156 C 160.816406 178.890625 167.121094 183.855469 175.71875 176.039062 C 175.71875 176.019531 169.703125 170.8125 160.816406 178.910156 " fill-opacity="1" fill-rule="nonzero"/></g><path fill="#2a6b84" d="M 230.6875 129.53125 C 230.691406 129.519531 237.5 133.359375 243.660156 126.027344 C 243.660156 126.019531 237.121094 121.960938 230.6875 129.53125 " fill-opacity="1" fill-rule="nonzero"/><path fill="#2a6b84" d="M 221.085938 121.792969 C 221.089844 121.789062 226.492188 127.210938 234.667969 120.90625 C 234.671875 120.90625 229.546875 115.246094 221.085938 121.792969 " fill-opacity="1" fill-rule="nonzero"/><path fill="#2a6b84" d="M 206.796875 205 C 206.800781 205.023438 205.261719 213.765625 216.386719 214.148438 C 216.386719 214.171875 218.140625 205.433594 206.796875 205 " fill-opacity="1" fill-rule="nonzero"/><path fill="#2a6b84" d="M 249.070312 211.511719 C 249.070312 211.527344 250.679688 204.042969 241.398438 203.078125 C 241.402344 203.097656 239.617188 210.269531 249.070312 211.511719 " fill-opacity="1" fill-rule="nonzero"/><path fill="#2a6b84" d="M 211.851562 218.878906 C 211.855469 218.867188 205.984375 214.574219 199.519531 221.089844 C 199.519531 221.078125 205.082031 225.355469 211.851562 218.878906 " fill-opacity="1" fill-rule="nonzero"/><path fill="#2a6b84" d="M 263.761719 205.214844 C 263.757812 205.226562 267.078125 199.734375 260.402344 196.722656 C 260.402344 196.730469 257.007812 201.992188 263.761719 205.214844 " fill-opacity="1" fill-rule="nonzero"/><path fill="#2a6b84" d="M 239.5625 213.527344 C 239.5625 213.546875 241.421875 204.9375 230.765625 203.964844 C 230.765625 203.984375 228.703125 212.214844 239.5625 213.527344 " fill-opacity="1" fill-rule="nonzero"/><path fill="#2a6b84" d="M 228.460938 214.632812 C 228.460938 214.65625 230.253906 206.289062 219.90625 205.515625 C 219.90625 205.535156 217.914062 213.523438 228.460938 214.632812 " fill-opacity="1" fill-rule="nonzero"/><path fill="#2a6b84" d="M 250.839844 199.503906 C 250.839844 199.519531 248.808594 206.550781 257.605469 208.140625 C 257.605469 208.15625 259.796875 201.234375 250.839844 199.503906 " fill-opacity="1" fill-rule="nonzero"/><path fill="#2a6b84" d="M 193.542969 141.371094 C 193.550781 141.398438 194.398438 150.164062 206.203125 147.390625 C 206.207031 147.417969 205.609375 138.449219 193.542969 141.371094 " fill-opacity="1" fill-rule="nonzero"/><path fill="#2a6b84" d="M 191.398438 132.519531 C 191.40625 132.546875 192.527344 140.699219 203.628906 137.632812 C 203.632812 137.660156 202.746094 129.300781 191.398438 132.519531 " fill-opacity="1" fill-rule="nonzero"/><path fill="#2a6b84" d="M 190.140625 123.324219 C 190.144531 123.34375 191.15625 130.667969 201.128906 127.78125 C 201.136719 127.808594 200.339844 120.320312 190.140625 123.324219 " fill-opacity="1" fill-rule="nonzero"/><path fill="#2a6b84" d="M 193.308594 111.648438 C 193.3125 111.664062 191.410156 117.777344 198.855469 118.128906 C 198.855469 118.148438 200.875 112.074219 193.308594 111.648438 " fill-opacity="1" fill-rule="nonzero"/><path fill="#2a6b84" d="M 167.476562 131.21875 C 167.480469 131.226562 169.335938 136.285156 176.75 132.695312 C 176.75 132.699219 175.074219 127.507812 167.476562 131.21875 " fill-opacity="1" fill-rule="nonzero"/><path fill="#2a6b84" d="M 214.261719 115.269531 C 214.261719 115.261719 219.65625 120.5625 227.820312 114.128906 C 227.820312 114.128906 222.699219 108.582031 214.261719 115.269531 " fill-opacity="1" fill-rule="nonzero"/><path fill="#2a6b84" d="M 209.984375 105.089844 C 209.988281 105.109375 212.222656 112.15625 222.046875 108.441406 C 222.050781 108.464844 220.054688 101.214844 209.984375 105.089844 " fill-opacity="1" fill-rule="nonzero"/><path fill="#2a6b84" d="M 180.179688 103.351562 C 180.1875 103.414062 175.714844 114.328125 188.644531 115.667969 C 188.652344 115.730469 193.289062 104.757812 180.179688 103.351562 " fill-opacity="1" fill-rule="nonzero"/><path fill="#2a6b84" d="M 190.445312 91.066406 C 190.449219 91.09375 183.976562 99.871094 193.304688 104.042969 C 193.304688 104.074219 199.851562 95.519531 190.445312 91.066406 " fill-opacity="1" fill-rule="nonzero"/><path fill="#2a6b84" d="M 208.761719 96.542969 C 208.761719 96.558594 209.839844 102.472656 217.875 100.058594 C 217.875 100.074219 216.992188 94.0625 208.761719 96.542969 " fill-opacity="1" fill-rule="nonzero"/><path fill="#2a6b84" d="M 364.867188 208.5625 C 364.867188 208.570312 367.164062 202.855469 376.222656 206.136719 C 376.222656 206.144531 374.203125 211.660156 364.867188 208.5625 " fill-opacity="1" fill-rule="nonzero"/><path fill="#2a6b84" d="M 371.816406 215.660156 C 371.816406 215.671875 371.761719 209.445312 381.230469 210.019531 C 381.226562 210.035156 381.511719 215.980469 371.816406 215.660156 " fill-opacity="1" fill-rule="nonzero"/><path fill="#2a6b84" d="M 381.246094 217.234375 C 381.246094 217.25 379.832031 211.054688 389.03125 210.113281 C 389.03125 210.132812 390.632812 216.027344 381.246094 217.234375 " fill-opacity="1" fill-rule="nonzero"/><path fill="#2a6b84" d="M 391.027344 218.097656 C 391.023438 218.117188 388.609375 212.085938 397.367188 210.050781 C 397.367188 210.074219 399.9375 215.792969 391.027344 218.097656 " fill-opacity="1" fill-rule="nonzero"/><path fill="#2a6b84" d="M 400.558594 216.855469 C 400.558594 216.875 398.917969 210.738281 408 209.796875 C 407.996094 209.820312 409.816406 215.644531 400.558594 216.855469 " fill-opacity="1" fill-rule="nonzero"/><path fill="#2a6b84" d="M 409.753906 217.675781 C 409.75 217.703125 408.941406 210.113281 420.457031 210.609375 C 420.449219 210.640625 421.53125 217.800781 409.753906 217.675781 " fill-opacity="1" fill-rule="nonzero"/><path fill="#2a6b84" d="M 386.921875 236.542969 C 386.921875 236.515625 395.882812 231.796875 404.828125 242.875 C 404.824219 242.84375 396.324219 247.671875 386.921875 236.542969 " fill-opacity="1" fill-rule="nonzero"/><path fill="#2a6b84" d="M 356.84375 206.5 C 356.847656 206.511719 353.175781 199.515625 361.15625 194.324219 C 361.160156 194.34375 364.917969 200.984375 356.84375 206.5 " fill-opacity="1" fill-rule="nonzero"/><path fill="#2a6b84" d="M 349.628906 210.777344 C 349.628906 210.785156 344.261719 205.351562 350.242188 197.417969 C 350.242188 197.425781 355.621094 202.542969 349.628906 210.777344 " fill-opacity="1" fill-rule="nonzero"/><path fill="#2a6b84" d="M 383.847656 205.269531 C 383.847656 205.25 373.746094 205.339844 374.28125 195.011719 C 374.285156 194.988281 384.171875 194.753906 383.847656 205.269531 " fill-opacity="1" fill-rule="nonzero"/><path fill="#2a6b84" d="M 396.460938 206.300781 C 396.46875 206.28125 386.390625 206.183594 386.933594 195.949219 C 386.933594 195.925781 396.796875 195.894531 396.460938 206.300781 " fill-opacity="1" fill-rule="nonzero"/><g clip-path="url(#5e97a00aeb)"><path fill="#2a6b84" d="M 447.882812 178.820312 C 447.878906 178.855469 450.921875 187.371094 439.386719 186.246094 C 439.378906 186.285156 436.171875 177.65625 447.882812 178.820312 " fill-opacity="1" fill-rule="nonzero"/></g><path fill="#2a6b84" d="M 445.492188 163.304688 C 445.480469 163.359375 447.011719 174.671875 431.300781 170.492188 C 431.285156 170.554688 429.511719 158.824219 445.492188 163.304688 " fill-opacity="1" fill-rule="nonzero"/><path fill="#2a6b84" d="M 406.328125 205.644531 C 406.332031 205.632812 398.636719 205.417969 399.054688 197.664062 C 399.058594 197.644531 406.585938 197.746094 406.328125 205.644531 " fill-opacity="1" fill-rule="nonzero"/><path fill="#2a6b84" d="M 418.84375 203.152344 C 418.84375 203.132812 411.027344 204.542969 409.164062 196.761719 C 409.167969 196.742188 416.769531 195.238281 418.84375 203.152344 " fill-opacity="1" fill-rule="nonzero"/><path fill="#2a6b84" d="M 428.519531 201.730469 C 428.519531 201.710938 420.726562 202.964844 418.871094 195.21875 C 418.875 195.199219 426.449219 193.855469 428.519531 201.730469 " fill-opacity="1" fill-rule="nonzero"/><path fill="#2a6b84" d="M 438.722656 197.050781 C 438.726562 197.027344 432.152344 200.605469 427.097656 194.015625 C 427.097656 193.996094 433.425781 190.316406 438.722656 197.050781 " fill-opacity="1" fill-rule="nonzero"/><path fill="#2a6b84" d="M 395.664062 230.492188 C 395.664062 230.476562 387.566406 231.71875 386.503906 223.859375 C 386.503906 223.839844 394.398438 222.5 395.664062 230.492188 " fill-opacity="1" fill-rule="nonzero"/><path fill="#2a6b84" d="M 387.429688 243.625 C 387.433594 243.609375 379.074219 243.953125 379.324219 236.113281 C 379.324219 236.101562 387.496094 235.648438 387.429688 243.625 " fill-opacity="1" fill-rule="nonzero"/><path fill="#2a6b84" d="M 375.125 241.1875 C 375.125 241.179688 366.917969 238.886719 370.417969 231.832031 C 370.417969 231.824219 378.519531 233.957031 375.125 241.1875 " fill-opacity="1" fill-rule="nonzero"/><path fill="#2a6b84" d="M 364.546875 236.804688 C 364.550781 236.8125 357.535156 232.21875 363.71875 226.804688 C 363.71875 226.8125 370.707031 231.1875 364.546875 236.804688 " fill-opacity="1" fill-rule="nonzero"/><path fill="#2a6b84" d="M 353.800781 232 C 353.800781 232.011719 349.980469 225.105469 358.601562 223.1875 C 358.601562 223.203125 362.527344 229.839844 353.800781 232 " fill-opacity="1" fill-rule="nonzero"/><path fill="#2a6b84" d="M 386.167969 229.535156 C 386.167969 229.511719 378.054688 230.863281 376.988281 222.964844 C 376.988281 222.949219 384.898438 221.496094 386.167969 229.535156 " fill-opacity="1" fill-rule="nonzero"/><path fill="#2a6b84" d="M 405.683594 229.242188 C 405.6875 229.222656 397.605469 230.339844 396.546875 222.523438 C 396.546875 222.503906 404.425781 221.296875 405.683594 229.242188 " fill-opacity="1" fill-rule="nonzero"/><path fill="#2a6b84" d="M 416.640625 224.683594 C 416.640625 224.660156 409.515625 228.171875 405.070312 221.46875 C 405.070312 221.449219 411.941406 217.855469 416.640625 224.683594 " fill-opacity="1" fill-rule="nonzero"/><path fill="#2a6b84" d="M 445.4375 192.308594 C 445.4375 192.292969 440.566406 195.492188 435.9375 190.519531 C 435.9375 190.507812 440.609375 187.222656 445.4375 192.308594 " fill-opacity="1" fill-rule="nonzero"/><path fill="#2a6b84" d="M 164.167969 185.460938 C 164.167969 185.433594 172.070312 193.816406 185.585938 183.769531 C 185.59375 183.753906 178.0625 174.894531 164.167969 185.460938 " fill-opacity="1" fill-rule="nonzero"/><path fill="#2a6b84" d="M 187.316406 212.964844 C 187.320312 212.953125 193.871094 220.890625 205.625 213.09375 C 205.625 213.082031 199.4375 204.871094 187.316406 212.964844 " fill-opacity="1" fill-rule="nonzero"/><path fill="#2a6b84" d="M 201.441406 228.015625 C 201.441406 228 208.941406 235.003906 219.238281 226.6875 C 219.242188 226.671875 212.109375 219.453125 201.441406 228.015625 " fill-opacity="1" fill-rule="nonzero"/><path fill="#2a6b84" d="M 196.078125 200.164062 C 196.074219 200.136719 205.636719 200.609375 208.117188 190.898438 C 208.117188 190.871094 198.816406 190.234375 196.078125 200.164062 " fill-opacity="1" fill-rule="nonzero"/><path fill="#2a6b84" d="M 223.160156 200.796875 C 223.15625 200.785156 232.613281 197.378906 229.621094 188.285156 C 229.617188 188.273438 220.3125 191.464844 223.160156 200.796875 " fill-opacity="1" fill-rule="nonzero"/><path fill="#2a6b84" d="M 209.484375 202.839844 C 209.476562 202.816406 220.476562 201.21875 218.761719 190.820312 C 218.753906 190.796875 207.972656 192.226562 209.484375 202.839844 " fill-opacity="1" fill-rule="nonzero"/><path fill="#2a6b84" d="M 185.691406 195.152344 C 185.691406 195.132812 192.960938 198.316406 198.773438 190.371094 C 198.773438 190.351562 191.773438 187.003906 185.691406 195.152344 " fill-opacity="1" fill-rule="nonzero"/><path fill="#2a6b84" d="M 179.058594 191.152344 C 179.058594 191.136719 184.4375 194.148438 189.730469 188.058594 C 189.730469 188.050781 184.574219 184.910156 179.058594 191.152344 " fill-opacity="1" fill-rule="nonzero"/><path fill="#2a6b84" d="M 213.925781 233.703125 C 213.925781 233.695312 219.347656 237.265625 224.683594 231.480469 C 224.683594 231.472656 219.5 227.804688 213.925781 233.703125 " fill-opacity="1" fill-rule="nonzero"/><path fill="#2a6b84" d="M 248.441406 236.355469 C 248.4375 236.351562 257.347656 232.085938 252.6875 223.398438 C 252.683594 223.390625 243.878906 227.410156 248.441406 236.355469 " fill-opacity="1" fill-rule="nonzero"/><path fill="#2a6b84" d="M 262.328125 231.953125 C 262.324219 231.957031 270.871094 225.304688 262.054688 218.109375 C 262.050781 218.117188 253.511719 224.464844 262.328125 231.953125 " fill-opacity="1" fill-rule="nonzero"/><path fill="#2a6b84" d="M 235.390625 237.464844 C 235.390625 237.457031 244.324219 236.433594 243.917969 227.542969 C 243.917969 227.53125 235.171875 228.371094 235.390625 237.464844 " fill-opacity="1" fill-rule="nonzero"/><path fill="#2a6b84" d="M 226.367188 237.566406 C 226.363281 237.554688 233.53125 237.304688 234.023438 230.144531 C 234.023438 230.140625 227.03125 230.246094 226.367188 237.566406 " fill-opacity="1" fill-rule="nonzero"/></svg>