<svg width="74" height="76" viewBox="0 0 74 76" fill="none" xmlns="http://www.w3.org/2000/svg">
<ellipse cx="37" cy="38" rx="37" ry="38" fill="#344D59"/>
<path d="M45.5156 30.6875C45.2344 30.8125 45.0469 31.0625 44.9531 31.4375C44.8594 31.7812 44.9219 32.1094 45.1406 32.4219C45.1094 32.6094 45.0625 32.8125 45 33.0312C44.9688 33.2188 44.9844 33.4375 45.0469 33.6875C44.9844 33.9375 44.9219 34.125 44.8594 34.25C44.7969 34.375 44.8281 34.4688 44.9531 34.5312C44.7031 34.7812 44.6094 34.9219 44.6719 34.9531C44.7344 34.9531 44.75 34.9844 44.7188 35.0469C44.6562 35.7656 44.4531 36.4375 44.1094 37.0625C43.7656 37.6875 43.3125 38.2031 42.75 38.6094C42.75 38.7969 42.6875 38.9531 42.5625 39.0781C42.4688 39.1719 42.3438 39.2812 42.1875 39.4062C42.0625 39.5 41.9219 39.6094 41.7656 39.7344C41.6094 39.8281 41.5 39.9688 41.4375 40.1562C41.3125 40.125 41.2188 40.1406 41.1562 40.2031C41.125 40.2344 41.0469 40.2656 40.9219 40.2969C40.7031 40.5156 40.5312 40.7344 40.4062 40.9531C40.3125 41.1719 40.1406 41.25 39.8906 41.1875C39.5469 41.5312 39.1406 41.8438 38.6719 42.125C38.2031 42.375 37.8438 42.7344 37.5938 43.2031C37.0938 43.4219 36.6719 43.7188 36.3281 44.0938C36.0156 44.4688 35.625 44.8281 35.1562 45.1719C35.1562 45.4844 35.0312 45.75 34.7812 45.9688C34.5625 46.1875 34.375 46.4219 34.2188 46.6719C34.1875 47.0156 34.0781 47.4062 33.8906 47.8438C33.7344 48.25 33.625 48.6719 33.5625 49.1094C33.625 49.4531 33.6406 49.7656 33.6094 50.0469C33.5781 50.3281 33.7188 50.5625 34.0312 50.75C34.0625 50.9062 34.0469 51.0469 33.9844 51.1719C33.9531 51.2656 33.9375 51.375 33.9375 51.5C33.5 51.25 33.25 50.9531 33.1875 50.6094C33.125 50.2656 33.0312 49.9219 32.9062 49.5781C32.8438 49.3281 32.8438 49.125 32.9062 48.9688C33 48.7812 33.0625 48.5625 33.0938 48.3125C33.125 48.125 33.1094 47.9531 33.0469 47.7969C33.0156 47.6406 33.0156 47.4844 33.0469 47.3281C33.1094 47.1406 33.1875 46.9531 33.2812 46.7656C33.4062 46.5469 33.4844 46.3125 33.5156 46.0625C33.5781 45.7188 33.6562 45.5 33.75 45.4062C33.8438 45.3125 33.9688 45.1562 34.125 44.9375C34.3438 44.6875 34.5469 44.4219 34.7344 44.1406C34.9219 43.8281 35.1406 43.5469 35.3906 43.2969C35.9531 42.7656 36.4844 42.25 36.9844 41.75C37.5156 41.25 37.9375 40.5938 38.25 39.7812C38.4688 39.25 38.6562 38.8125 38.8125 38.4688C38.9688 38.125 39.0781 37.6875 39.1406 37.1562C39.0781 37.0938 38.9844 37.0781 38.8594 37.1094C38.7344 37.1094 38.6406 37.0781 38.5781 37.0156C38.7969 36.7656 38.9688 36.5 39.0938 36.2188C39.2188 35.9062 39.3281 35.5781 39.4219 35.2344C39.3281 34.7969 39.375 34.4844 39.5625 34.2969C39.7812 34.1094 39.8906 33.8281 39.8906 33.4531C39.8281 33.2031 39.8438 32.9531 39.9375 32.7031C40.0625 32.4531 40.0469 32.1875 39.8906 31.9062C40.0156 31.5312 40.0469 31.2812 39.9844 31.1562C39.9531 31 40.0156 30.875 40.1719 30.7812C40.1406 30.4688 40.0469 30.2031 39.8906 29.9844C39.7656 29.7344 39.7656 29.4688 39.8906 29.1875C39.5156 28.875 39.3594 28.6875 39.4219 28.625C39.4844 28.5312 39.5625 28.4062 39.6562 28.25C39.5 27.7812 39.2969 27.3594 39.0469 26.9844C38.8281 26.6094 38.6719 26.1875 38.5781 25.7188C38.3594 25.6562 38.1875 25.5625 38.0625 25.4375C38 25.25 37.9375 25.0469 37.875 24.8281C37.5938 24.5469 37.2656 24.3281 36.8906 24.1719C36.5156 24.0156 36.1094 23.9375 35.6719 23.9375C35.2656 23.9062 34.8438 23.9375 34.4062 24.0312C34 24.125 33.6562 24.2344 33.375 24.3594C32.8125 24.3906 32.3906 24.5625 32.1094 24.875C31.8594 25.1875 31.5312 25.4219 31.125 25.5781C31.0312 26.0469 30.8594 26.5156 30.6094 26.9844C30.3594 27.4531 30.1406 27.9219 29.9531 28.3906C30.0469 28.5469 30.0625 28.6562 30 28.7188C29.9688 28.7812 30 28.8906 30.0938 29.0469C30.5 29.2031 30.9062 29.2812 31.3125 29.2812C31.75 29.25 32.1875 29.2031 32.625 29.1406C32.8438 29.8281 33.0938 30.3438 33.375 30.6875C33.6875 31 33.8438 31.4219 33.8438 31.9531C33.6875 32.1094 33.625 32.25 33.6562 32.375C33.7188 32.5 33.7031 32.6094 33.6094 32.7031C33.7031 33.0469 33.7188 33.2188 33.6562 33.2188C33.5938 33.1875 33.5469 33.1875 33.5156 33.2188C33.5469 33.4688 33.4844 33.625 33.3281 33.6875C33.1719 33.75 33.0938 33.9062 33.0938 34.1562C32.75 34.5 32.4219 34.6875 32.1094 34.7188C31.8281 34.7188 31.6406 34.8438 31.5469 35.0938C31.3906 35.0625 31.25 35.0156 31.125 34.9531C31.0312 34.8906 30.8906 34.875 30.7031 34.9062C30.5469 34.7188 30.3438 34.5938 30.0938 34.5312C29.875 34.4375 29.6875 34.2969 29.5312 34.1094C29.4688 33.9531 29.3906 33.8281 29.2969 33.7344C29.2344 33.6406 29.1562 33.5469 29.0625 33.4531C28.9688 33.1094 28.8438 32.7656 28.6875 32.4219C28.5625 32.0469 28.5156 31.6562 28.5469 31.25C28.3906 30.7812 28.375 30.2812 28.5 29.75C28.6562 29.1875 28.7812 28.6875 28.875 28.25C28.9375 27.9375 29.0625 27.6562 29.25 27.4062C29.4375 27.125 29.5938 26.875 29.7188 26.6562C29.8125 26.5312 29.875 26.4062 29.9062 26.2812C29.9375 26.125 29.9844 25.9688 30.0469 25.8125C30.1406 25.6562 30.25 25.5156 30.375 25.3906C30.5 25.2344 30.5938 25.0469 30.6562 24.8281C30.9062 24.7656 31.0781 24.6406 31.1719 24.4531C31.2969 24.2656 31.5 24.1719 31.7812 24.1719C32.125 23.8281 32.5312 23.5938 33 23.4688C33.4688 23.3125 33.875 23.0938 34.2188 22.8125C34.75 22.8438 35.3438 22.875 36 22.9062C36.6562 22.9062 37.1562 23.0625 37.5 23.375C37.6875 23.3438 37.8281 23.3594 37.9219 23.4219C38.0156 23.4844 38.1562 23.4844 38.3438 23.4219C38.4688 23.5469 38.5938 23.625 38.7188 23.6562C38.875 23.6875 39.0469 23.7188 39.2344 23.75C39.3281 23.9062 39.4375 24.0312 39.5625 24.125C39.7188 24.1875 39.9531 24.2344 40.2656 24.2656C40.5156 24.3906 40.7344 24.5312 40.9219 24.6875C41.1094 24.8438 41.1562 25 41.0625 25.1562C41.2812 25.25 41.5156 25.3438 41.7656 25.4375C42.0469 25.5 42.2188 25.6562 42.2812 25.9062C42.9688 26.4688 43.5312 27.1562 43.9688 27.9688C44.4062 28.7812 44.6875 29.6562 44.8125 30.5938C44.9688 30.625 45.1094 30.6094 45.2344 30.5469C45.3594 30.4531 45.4531 30.5 45.5156 30.6875ZM37.0781 56.75C36.9531 57 36.8125 57.1562 36.6562 57.2188C36.7188 57.375 36.7344 57.5 36.7031 57.5938C36.6719 57.6562 36.625 57.7344 36.5625 57.8281C36.5312 57.8906 36.5 57.9688 36.4688 58.0625C36.4375 58.1562 36.4531 58.2812 36.5156 58.4375C36.2969 58.5 36.1094 58.6094 35.9531 58.7656C35.7969 58.8906 35.6406 59.0156 35.4844 59.1406C35.3281 59.2656 35.1406 59.3594 34.9219 59.4219C34.7344 59.5156 34.5 59.5625 34.2188 59.5625C33.875 59.625 33.6094 59.5938 33.4219 59.4688C33.2656 59.3438 33.0625 59.3125 32.8125 59.375C32.5312 59.25 32.3438 59.1562 32.25 59.0938C32.1562 59.0625 32.0625 59.0156 31.9688 58.9531C31.875 58.8594 31.7812 58.7812 31.6875 58.7188C31.5938 58.625 31.4688 58.5938 31.3125 58.625C31.1875 58.25 31.0312 57.8906 30.8438 57.5469C30.6875 57.2031 30.5469 56.8438 30.4219 56.4688C30.4844 56.3125 30.5312 56.1406 30.5625 55.9531C30.625 55.7344 30.625 55.5312 30.5625 55.3438C30.7188 55.0625 30.9219 54.75 31.1719 54.4062C31.4531 54.0625 31.7656 53.75 32.1094 53.4688C32.4531 53.1875 32.8125 52.9688 33.1875 52.8125C33.5938 52.6562 34.0156 52.625 34.4531 52.7188C34.9219 52.9688 35.2656 53.1406 35.4844 53.2344C35.7031 53.2969 35.8438 53.4531 35.9062 53.7031C36.2188 53.7969 36.4375 53.9688 36.5625 54.2188C36.7188 54.4375 36.8125 54.7031 36.8438 55.0156C36.9062 55.3281 36.9375 55.6406 36.9375 55.9531C36.9688 56.2656 37.0156 56.5312 37.0781 56.75ZM41.8594 26.4688C41.7344 26.2812 41.5938 26.1875 41.4375 26.1875C41.3125 26.1875 41.1875 26.2031 41.0625 26.2344C40.9375 26.4844 40.7344 26.6719 40.4531 26.7969C40.2031 26.8906 40.0312 27.0938 39.9375 27.4062C40.2812 27.3125 40.5938 27.1875 40.875 27.0312C41.1562 26.875 41.4375 26.7969 41.7188 26.7969L41.8594 26.4688ZM40.7344 26.0938C40.5781 26.125 40.3906 26.1875 40.1719 26.2812C39.9531 26.3438 39.7344 26.3281 39.5156 26.2344C39.5781 25.9844 39.6562 25.7969 39.75 25.6719C39.8438 25.5469 39.9375 25.4062 40.0312 25.25C39.875 25.1562 39.6875 25.0938 39.4688 25.0625C39.2812 25 39.1875 24.8594 39.1875 24.6406C39 24.6719 38.8438 24.6562 38.7188 24.5938C38.625 24.5 38.5 24.4688 38.3438 24.5C38.5312 24.875 38.75 25.2188 39 25.5312C39.25 25.8438 39.4062 26.2656 39.4688 26.7969C39.9062 26.7969 40.1875 26.7188 40.3125 26.5625C40.4375 26.4062 40.5781 26.25 40.7344 26.0938ZM42.8438 27.3125C42.7812 27.25 42.7188 27.2031 42.6562 27.1719C42.5938 27.1094 42.5 27.0625 42.375 27.0312C41.9688 27.25 41.5781 27.4688 41.2031 27.6875C40.8281 27.9062 40.5156 28.2031 40.2656 28.5781C40.3594 28.6094 40.4531 28.6094 40.5469 28.5781C40.6719 28.5156 40.7969 28.4531 40.9219 28.3906C41.0469 28.3281 41.1562 28.2812 41.25 28.25C41.375 28.2188 41.4688 28.2188 41.5312 28.25C41.5312 28.125 41.5938 28.0469 41.7188 28.0156C41.8438 27.9531 41.9688 27.9219 42.0938 27.9219C42.25 27.8906 42.375 27.8594 42.4688 27.8281C42.5938 27.7969 42.6719 27.7188 42.7031 27.5938L42.8438 27.3125ZM41.7188 26.8906C41.4375 27.0469 41.125 27.1719 40.7812 27.2656C40.4375 27.3281 40.1875 27.5156 40.0312 27.8281C40.4375 27.9219 40.75 27.8281 40.9688 27.5469C41.2188 27.2656 41.4688 27.0469 41.7188 26.8906ZM44.0625 29.6094C43.7812 29.6406 43.5 29.75 43.2188 29.9375C42.9375 30.125 42.7188 30.3281 42.5625 30.5469C43.125 30.3594 43.625 30.0469 44.0625 29.6094ZM43.6406 28.8594C43.6719 28.5469 43.5938 28.3438 43.4062 28.25C43.25 28.1562 43.1562 27.9688 43.125 27.6875C42.875 27.7188 42.625 27.8281 42.375 28.0156C42.1562 28.2031 41.9375 28.2656 41.7188 28.2031C41.6562 28.3594 41.5312 28.4844 41.3438 28.5781C41.1875 28.6719 41 28.6875 40.7812 28.625C40.75 28.7812 40.7188 28.9219 40.6875 29.0469C40.6875 29.1406 40.6719 29.2188 40.6406 29.2812C41.0469 29.2188 41.4219 29.0625 41.7656 28.8125C42.1094 28.5312 42.4531 28.4219 42.7969 28.4844C42.5781 28.8594 42.2812 29.1719 41.9062 29.4219C41.5625 29.6406 41.2812 29.9688 41.0625 30.4062C41.3125 30.3125 41.5625 30.1562 41.8125 29.9375C42.0625 29.7188 42.3438 29.6719 42.6562 29.7969C42.8438 29.6094 43 29.4375 43.125 29.2812C43.25 29.0938 43.4219 28.9531 43.6406 28.8594ZM41.2969 29.4219C41.1719 29.4844 41.0312 29.5469 40.875 29.6094C40.7188 29.6406 40.625 29.75 40.5938 29.9375C40.75 30 40.8906 29.9688 41.0156 29.8438C41.1406 29.6875 41.2344 29.5469 41.2969 29.4219ZM44.2031 30.4062C43.9844 30.4375 43.7812 30.5156 43.5938 30.6406C43.4062 30.7344 43.2188 30.8594 43.0312 31.0156C42.8438 31.1406 42.6562 31.2656 42.4688 31.3906C42.2812 31.5156 42.0625 31.5938 41.8125 31.625C41.75 31.9688 41.5938 32.1719 41.3438 32.2344C41.0938 32.2969 40.9375 32.5 40.875 32.8438C41.1562 32.9688 41.375 33.0312 41.5312 33.0312C41.6875 32.875 41.875 32.75 42.0938 32.6562C42.3125 32.5312 42.5 32.3906 42.6562 32.2344C43.0625 31.9844 43.3438 31.7812 43.5 31.625C43.6562 31.4375 43.8125 31.3125 43.9688 31.25C44.0312 31.1562 44.1094 31.0312 44.2031 30.875C44.2969 30.7188 44.2969 30.5625 44.2031 30.4062ZM41.8594 30.2656C41.4844 30.3594 41.1875 30.5312 40.9688 30.7812C40.7188 30.9688 40.5781 31.1094 40.5469 31.2031C40.5469 31.2969 40.5781 31.4062 40.6406 31.5312C40.7031 31.875 40.7344 32.0625 40.7344 32.0938C40.7656 32.125 40.75 32.1875 40.6875 32.2812C40.875 32.1562 41.0625 32.0312 41.25 31.9062C41.4375 31.75 41.6094 31.5938 41.7656 31.4375C41.6094 31.375 41.5 31.375 41.4375 31.4375C41.375 31.4688 41.2656 31.4844 41.1094 31.4844C41.0781 31.0781 41.1719 30.8438 41.3906 30.7812C41.6406 30.6875 41.7969 30.5156 41.8594 30.2656ZM44.2969 31.7656C44.0469 31.8906 43.8594 31.9531 43.7344 31.9531C43.3906 32.0156 43.1719 32.1406 43.0781 32.3281C42.9844 32.4844 42.8125 32.5938 42.5625 32.6562C42.375 32.75 42.2031 32.8594 42.0469 32.9844C41.9219 33.1094 41.7812 33.1562 41.625 33.125C41.2188 33.3438 40.9219 33.6719 40.7344 34.1094C40.5781 34.2344 40.4688 34.3594 40.4062 34.4844C40.375 34.5781 40.3281 34.6719 40.2656 34.7656C40.5781 34.8906 40.7969 34.875 40.9219 34.7188C41.0781 34.5625 41.2812 34.4531 41.5312 34.3906C41.7812 34.1406 41.9531 34.0625 42.0469 34.1562C42.2031 34.0625 42.3906 33.9219 42.6094 33.7344C42.8594 33.5156 43.1562 33.4531 43.5 33.5469C43.5625 33.4531 43.6406 33.3594 43.7344 33.2656C43.8594 33.1719 44.0156 33.1094 44.2031 33.0781C44.2656 32.8906 44.2812 32.6875 44.25 32.4688C44.25 32.25 44.2656 32.0156 44.2969 31.7656ZM41.1094 33.1719C40.9531 33.1719 40.7969 33.2031 40.6406 33.2656C40.4844 33.3281 40.4688 33.4375 40.5938 33.5938C40.6875 33.5312 40.7812 33.4844 40.875 33.4531C40.9688 33.3906 41.0469 33.2969 41.1094 33.1719ZM43.9688 34.7656C43.8125 34.7344 43.7031 34.7656 43.6406 34.8594C43.6094 34.9219 43.5156 34.9375 43.3594 34.9062C43.3906 35.0625 43.3281 35.1406 43.1719 35.1406C43.0156 35.1094 42.8906 35.1094 42.7969 35.1406C42.7656 35.3281 42.6875 35.4688 42.5625 35.5625C42.4688 35.6562 42.3594 35.7344 42.2344 35.7969C42.1094 35.8594 41.9844 35.9375 41.8594 36.0312C41.7344 36.125 41.6562 36.25 41.625 36.4062C41.5938 36.5312 41.6562 36.5156 41.8125 36.3594C41.9688 36.2031 42.1562 36.2031 42.375 36.3594C42.5938 36.1719 42.7656 36.0156 42.8906 35.8906C43.0469 35.7344 43.25 35.6875 43.5 35.75C43.5625 35.5625 43.6719 35.4219 43.8281 35.3281C43.9844 35.2031 44.0312 35.0156 43.9688 34.7656ZM43.0312 36.2656C42.8125 36.2031 42.6406 36.2656 42.5156 36.4531C42.4219 36.6094 42.2188 36.6562 41.9062 36.5938C42.25 36.625 42.5 36.625 42.6562 36.5938C42.8125 36.5312 42.9375 36.4219 43.0312 36.2656ZM41.8125 35.4688C41.75 35.5625 41.6406 35.6094 41.4844 35.6094C41.3594 35.6094 41.3125 35.6875 41.3438 35.8438C41.5 35.8438 41.625 35.7969 41.7188 35.7031C41.8125 35.6094 41.8438 35.5312 41.8125 35.4688ZM41.1094 35.9375C40.9531 36.0312 40.7969 36.1094 40.6406 36.1719C40.5156 36.2344 40.4219 36.3438 40.3594 36.5C40.5156 36.5625 40.6406 36.5156 40.7344 36.3594C40.8594 36.2031 40.9844 36.0625 41.1094 35.9375ZM41.2031 36.7812C40.9531 36.7812 40.7812 36.8438 40.6875 36.9688C40.5938 37.0938 40.4844 37.2188 40.3594 37.3438C40.4844 37.3125 40.5625 37.25 40.5938 37.1562C40.6562 37.0625 40.7656 37.0625 40.9219 37.1562L41.2031 36.7812ZM40.7812 39.2188C40.2812 39.3125 39.9219 39.4844 39.7031 39.7344C39.5156 39.9531 39.2812 40.0625 39 40.0625C39.4062 40.25 39.7344 40.2031 39.9844 39.9219C40.2656 39.6094 40.5312 39.375 40.7812 39.2188ZM29.7656 30.3125C29.7344 30.1875 29.6719 30.0781 29.5781 29.9844C29.5156 29.8906 29.4531 29.7969 29.3906 29.7031C29.2969 29.8594 29.25 30.0625 29.25 30.3125C29.2812 30.5312 29.2812 30.75 29.25 30.9688C29.3125 30.8125 29.4062 30.7031 29.5312 30.6406C29.6562 30.5781 29.7344 30.4688 29.7656 30.3125ZM33.0469 31.9531C32.8594 31.9219 32.7188 32 32.625 32.1875C32.5625 32.375 32.4531 32.4375 32.2969 32.375C32.0469 32.4062 31.875 32.4375 31.7812 32.4688C31.7188 32.4688 31.7031 32.4375 31.7344 32.375C31.8906 32.3125 32.0156 32.2031 32.1094 32.0469C32.2344 31.8906 32.4062 31.8594 32.625 31.9531C32.3438 31.8281 32.1875 31.7656 32.1562 31.7656C32.1562 31.7656 32.1562 31.75 32.1562 31.7188C32.25 31.625 32.3594 31.5469 32.4844 31.4844C32.6094 31.4219 32.7188 31.3438 32.8125 31.25C32.9062 31 32.9375 30.875 32.9062 30.875C32.875 30.8438 32.8438 30.7969 32.8125 30.7344C32.7188 30.7656 32.5938 30.8281 32.4375 30.9219C32.2812 31.0156 32.1875 30.9531 32.1562 30.7344C32.2188 30.3281 32.1719 30.1406 32.0156 30.1719C31.8594 30.1719 31.7031 30.2188 31.5469 30.3125C31.4219 30.4062 31.2812 30.5156 31.125 30.6406C30.9688 30.7656 30.7969 30.7969 30.6094 30.7344C30.4531 30.6406 30.2812 30.6719 30.0938 30.8281C29.9375 30.9531 29.7812 31.0938 29.625 31.25C29.8438 31.1875 30.0781 31.0938 30.3281 30.9688C30.5781 30.8438 30.7969 30.8594 30.9844 31.0156C30.8906 31.0781 30.75 31.125 30.5625 31.1562C30.375 31.1875 30.2344 31.2188 30.1406 31.25C30.2031 31.3438 30.1406 31.4219 29.9531 31.4844C29.7969 31.5469 29.7188 31.6406 29.7188 31.7656C29.9375 31.7656 30.0938 31.7188 30.1875 31.625C30.3125 31.5 30.4531 31.4688 30.6094 31.5312C30.7656 31.3438 30.9688 31.2031 31.2188 31.1094C31.4688 31.0156 31.7188 30.9219 31.9688 30.8281C32.0312 31.0156 32.0312 31.1562 31.9688 31.25C31.9062 31.3125 31.8438 31.375 31.7812 31.4375C31.5938 31.375 31.4219 31.4219 31.2656 31.5781C31.1406 31.7031 31 31.8281 30.8438 31.9531C30.7188 31.7969 30.625 31.7188 30.5625 31.7188C30.5 31.7188 30.4531 31.6875 30.4219 31.625C30.4219 31.9688 30.4375 32.1562 30.4688 32.1875C30.5312 32.1875 30.5156 32.2656 30.4219 32.4219C30.6094 32.2969 30.6875 32.2031 30.6562 32.1406C30.625 32.0781 30.5938 32 30.5625 31.9062C30.7188 32.0312 30.8594 32.1094 30.9844 32.1406C31.1094 32.1719 31.2656 32.2188 31.4531 32.2812C31.2344 32.375 31.0938 32.4219 31.0312 32.4219C31 32.4219 30.9531 32.4062 30.8906 32.375C30.7344 32.5312 30.5938 32.6406 30.4688 32.7031C30.375 32.7344 30.2812 32.7812 30.1875 32.8438C30.125 32.7812 30.0312 32.7344 29.9062 32.7031C29.7812 32.6719 29.7031 32.5938 29.6719 32.4688C29.8281 32.4688 29.9062 32.4062 29.9062 32.2812C29.9375 32.1562 30.0312 32.0781 30.1875 32.0469C30.0312 32.1094 29.8594 32.1562 29.6719 32.1875C29.5156 32.2188 29.3438 32.2344 29.1562 32.2344C29.1875 32.8594 29.4531 33.3281 29.9531 33.6406C30.2344 33.5156 30.3594 33.4531 30.3281 33.4531C30.3281 33.4219 30.3594 33.3906 30.4219 33.3594C30.6406 33.3594 30.7969 33.2656 30.8906 33.0781C31.0156 32.8594 31.1562 32.8281 31.3125 32.9844C31.1875 33.2344 31.0156 33.4062 30.7969 33.5C30.6094 33.5625 30.5156 33.7031 30.5156 33.9219C30.8594 33.9844 31.1094 33.9219 31.2656 33.7344C31.4219 33.5469 31.6562 33.4375 31.9688 33.4062C32.4688 33.375 32.7812 33.2188 32.9062 32.9375C33.0625 32.625 33.1094 32.2969 33.0469 31.9531ZM32.8125 54.7344C32.5312 54.7031 32.375 54.6719 32.3438 54.6406C32.3438 54.6094 32.2812 54.5781 32.1562 54.5469C32.4062 54.6719 32.5781 54.7812 32.6719 54.875C32.7656 54.9375 32.8125 54.8906 32.8125 54.7344ZM36.3281 55.2969C36.0781 55.3281 35.8906 55.3438 35.7656 55.3438C35.7031 55.375 35.6094 55.4219 35.4844 55.4844C35.3906 55.5469 35.2812 55.5469 35.1562 55.4844C35.3125 55.4219 35.4375 55.3594 35.5312 55.2969C35.625 55.2344 35.75 55.1719 35.9062 55.1094C35.9688 54.7969 36 54.6094 36 54.5469C36 54.4531 35.9688 54.375 35.9062 54.3125C35.6562 54.0938 35.4062 53.9531 35.1562 53.8906C34.9375 53.8281 34.6875 53.7812 34.4062 53.75C34.1562 53.9062 33.9531 54.0625 33.7969 54.2188C33.6406 54.375 33.4375 54.4844 33.1875 54.5469C33.2188 54.6406 33.1875 54.7344 33.0938 54.8281C33 54.8906 32.8906 54.9531 32.7656 55.0156C32.6719 55.0469 32.5938 55.0781 32.5312 55.1094C32.4688 55.1406 32.4844 55.1719 32.5781 55.2031C32.4219 55.2031 32.3281 55.25 32.2969 55.3438C32.2656 55.4375 32.2031 55.5156 32.1094 55.5781C32.0469 55.4844 31.9531 55.4531 31.8281 55.4844C31.7344 55.5156 31.6719 55.4531 31.6406 55.2969C31.7031 55.2344 31.7812 55.1719 31.875 55.1094C32 55.0469 32.0312 54.9375 31.9688 54.7812C31.6875 55.0625 31.5156 55.2188 31.4531 55.25C31.3906 55.2812 31.3125 55.2812 31.2188 55.25C31.2812 55.5 31.2969 55.6562 31.2656 55.7188C31.2656 55.7812 31.25 55.8438 31.2188 55.9062C31.5 55.875 31.6094 55.9219 31.5469 56.0469C31.4844 56.1719 31.5 56.2969 31.5938 56.4219C31.875 56.3594 32.0312 56.2812 32.0625 56.1875C32.125 56.0938 32.1875 55.9531 32.25 55.7656C32.375 55.9219 32.5 55.9219 32.625 55.7656C32.75 55.5781 32.8906 55.5 33.0469 55.5312C33.2031 55.2812 33.3594 55.1562 33.5156 55.1562C33.6406 55 33.7344 54.8906 33.7969 54.8281C33.8906 54.7656 33.9688 54.7031 34.0312 54.6406C34.125 54.5469 34.2031 54.4688 34.2656 54.4062C34.3594 54.3125 34.4844 54.2656 34.6406 54.2656C34.6406 54.3594 34.625 54.4531 34.5938 54.5469C34.5938 54.6094 34.5938 54.7031 34.5938 54.8281C34.8438 55.1406 34.9688 55.3594 34.9688 55.4844C34.625 55.6406 34.3281 55.8438 34.0781 56.0938C33.8281 56.3125 33.5312 56.5 33.1875 56.6562C33.125 56.9062 32.9688 57.0781 32.7188 57.1719C32.4688 57.2656 32.3438 57.4375 32.3438 57.6875C32.375 57.9688 32.5 58.1562 32.7188 58.25C32.9688 58.3125 33.2812 58.2812 33.6562 58.1562C33.8438 58.3125 34 58.3906 34.125 58.3906C34.2812 58.3594 34.4219 58.2969 34.5469 58.2031C34.6719 58.1094 34.7969 58.0156 34.9219 57.9219C35.0469 57.7969 35.2031 57.7188 35.3906 57.6875C35.4219 57.5625 35.4844 57.4688 35.5781 57.4062C35.6719 57.3125 35.7656 57.2188 35.8594 57.125C35.9531 57.0312 36.0312 56.9219 36.0938 56.7969C36.1562 56.6719 36.1875 56.5156 36.1875 56.3281C36.0312 56.3594 35.9219 56.4219 35.8594 56.5156C35.7969 56.6094 35.7344 56.7031 35.6719 56.7969C35.4844 56.8594 35.2812 56.9688 35.0625 57.125C34.875 57.2812 34.7031 57.2812 34.5469 57.125C34.6406 57.0312 34.75 56.9375 34.875 56.8438C35.0312 56.75 35.1875 56.7188 35.3438 56.75C35.4062 56.5938 35.4375 56.4688 35.4375 56.375C35.4375 56.2812 35.5156 56.2031 35.6719 56.1406C35.7344 56.2344 35.7969 56.2656 35.8594 56.2344C35.9531 56.1719 36.0625 56.1562 36.1875 56.1875C36.25 56 36.2812 55.8594 36.2812 55.7656C36.2812 55.6406 36.2969 55.4844 36.3281 55.2969ZM34.4062 54.875C34.25 54.9375 34.1094 55.0156 33.9844 55.1094C33.8594 55.1719 33.7656 55.2812 33.7031 55.4375C33.5156 55.4375 33.2969 55.5156 33.0469 55.6719C32.8281 55.8281 32.6875 56.0312 32.625 56.2812C32.4688 56.3438 32.375 56.4219 32.3438 56.5156C32.3125 56.6094 32.2656 56.7031 32.2031 56.7969C32.3906 56.8281 32.5156 56.8125 32.5781 56.75C32.6719 56.6562 32.75 56.5781 32.8125 56.5156C32.9062 56.4219 32.9844 56.3594 33.0469 56.3281C33.1406 56.2656 33.2656 56.25 33.4219 56.2812C33.6719 56.1562 33.8125 56.0781 33.8438 56.0469C33.875 55.9844 33.9062 55.9375 33.9375 55.9062C34.125 55.5938 34.2344 55.4062 34.2656 55.3438L34.4062 54.875ZM32.5312 57.0312C32.5312 57 32.4844 56.9688 32.3906 56.9375C32.2969 56.9062 32.2031 56.8906 32.1094 56.8906C32.0156 56.8906 31.9375 56.9219 31.875 56.9844C31.8438 57.0156 31.8594 57.0625 31.9219 57.125C31.9531 57.0312 32.0312 57.0156 32.1562 57.0781C32.3125 57.1406 32.4375 57.125 32.5312 57.0312ZM42.1406 32.4688L41.3438 32.75C41.4375 32.6875 41.5469 32.6094 41.6719 32.5156C41.8281 32.4219 41.9844 32.4062 42.1406 32.4688ZM32.0625 31.7188C32 31.8125 31.9375 31.9062 31.875 32C31.8125 32.0625 31.7812 32.1406 31.7812 32.2344C31.625 32.2031 31.5938 32.125 31.6875 32C31.8125 31.8438 31.9375 31.75 32.0625 31.7188ZM34.3594 57.5C34.4219 57.5625 34.4219 57.6406 34.3594 57.7344C34.2969 57.7969 34.2188 57.875 34.125 57.9688C34.0312 58.0312 33.9219 58.0781 33.7969 58.1094C33.7031 58.1094 33.6406 58.0625 33.6094 57.9688C33.6719 57.8125 33.7969 57.7344 33.9844 57.7344C34.1719 57.7031 34.2969 57.625 34.3594 57.5Z" fill="white"/>
</svg>
