<?xml version="1.0" standalone="no"?>
<!DOCTYPE svg PUBLIC "-//W3C//DTD SVG 20010904//EN"
 "http://www.w3.org/TR/2001/REC-SVG-20010904/DTD/svg10.dtd">
<svg version="1.0" xmlns="http://www.w3.org/2000/svg"
 width="427.000000pt" height="427.000000pt" viewBox="0 0 427.000000 427.000000"
 preserveAspectRatio="xMidYMid meet">
<metadata>
Created by potrace 1.14, written by Peter Selinger 2001-2017
</metadata>
<g transform="translate(0.000000,427.000000) scale(0.100000,-0.100000)"
fill="#000000" stroke="none">
<path d="M2255 4208 c-2 -7 -5 -30 -7 -50 -4 -40 8 -54 14 -15 4 32 22 27 29
-8 l7 -30 1 33 c1 30 -7 38 -33 33 -5 -1 -6 10 -4 24 5 26 0 35 -7 13z"/>
<path d="M2098 4187 c-2 -7 -1 -25 3 -42 7 -30 7 -30 8 -3 0 14 5 28 10 30 5
2 3 8 -4 15 -10 9 -14 9 -17 0z"/>
<path d="M1990 4166 c-12 -12 -13 -45 -2 -47 48 -8 52 -6 52 25 0 25 -4 32
-20 32 -11 0 -25 -5 -30 -10z m40 -21 c0 -19 -20 -29 -32 -17 -15 15 -2 43 17
36 8 -3 15 -12 15 -19z"/>
<path d="M2062 4152 c1 -18 6 -32 10 -32 5 0 5 12 2 28 -10 39 -15 41 -12 4z"/>
<path d="M2182 4168 c-7 -7 -12 -18 -12 -24 0 -18 40 -28 54 -14 8 10 8 11 -2
6 -20 -12 -43 1 -35 19 3 10 13 15 24 12 11 -3 17 -1 13 4 -7 13 -28 11 -42
-3z"/>
<path d="M1921 4168 c-1 -12 22 -58 29 -58 4 0 7 6 7 13 0 6 4 21 7 32 6 15 4
15 -6 -3 l-14 -23 -12 23 c-6 13 -11 20 -11 16z"/>
<path d="M2326 4155 c-14 -14 -12 -44 3 -46 3 0 14 -2 24 -4 22 -4 36 43 16
56 -19 12 -25 11 -43 -6z m39 -5 c4 -6 1 -17 -5 -26 -10 -11 -16 -12 -26 -3
-11 9 -11 15 -3 25 14 17 25 18 34 4z"/>
<path d="M1851 4148 c-2 -30 11 -48 35 -48 21 0 24 4 22 30 -1 17 -6 30 -10
30 -4 0 -7 -10 -5 -22 3 -32 -25 -30 -34 2 -4 14 -7 18 -8 8z"/>
<path d="M2400 4145 c0 -7 -3 -22 -6 -32 -3 -10 2 -5 11 10 17 30 40 27 30 -4
-4 -10 -3 -19 2 -19 13 0 13 39 0 47 -20 13 -37 12 -37 -2z"/>
<path d="M1786 4134 c-8 -20 -7 -26 3 -43 7 -10 13 -11 30 -2 22 12 28 36 12
45 -5 4 -7 -2 -4 -13 6 -24 -25 -37 -34 -14 -4 9 -1 19 5 21 14 4 16 22 3 22
-5 0 -12 -7 -15 -16z"/>
<path d="M2465 4130 c-12 -19 6 -50 28 -50 17 0 18 -3 9 -12 -10 -10 -17 -10
-35 1 -20 13 -21 13 -8 -2 24 -29 49 -21 60 21 6 20 11 39 11 42 0 11 -59 10
-65 0z m48 -6 c9 -10 -4 -34 -18 -34 -17 0 -28 17 -20 30 7 11 28 13 38 4z"/>
<path d="M1712 4121 c-11 -6 -11 -17 -2 -50 6 -22 13 -41 16 -41 3 0 2 9 -1
20 -5 15 -2 20 13 20 24 0 37 28 21 46 -13 16 -28 17 -47 5z m41 -16 c7 -17
-8 -29 -28 -21 -17 6 -9 36 10 36 7 0 15 -7 18 -15z"/>
<path d="M2544 4106 c-9 -23 3 -46 23 -46 15 0 15 2 -3 15 -18 14 -17 15 9 9
25 -6 28 -4 25 12 -4 24 -46 31 -54 10z m46 -5 c0 -5 -9 -7 -20 -4 -11 3 -20
7 -20 9 0 2 9 4 20 4 11 0 20 -4 20 -9z"/>
<path d="M2710 4095 c-6 -14 -15 -37 -21 -52 -5 -16 -6 -23 -1 -18 12 13 43
95 37 95 -3 0 -10 -11 -15 -25z"/>
<path d="M1607 4087 c-24 -17 -12 -47 18 -47 20 0 23 5 22 27 -3 31 -16 38
-40 20z m29 -22 c1 -8 -4 -15 -12 -15 -9 0 -12 5 -9 10 3 6 0 10 -7 10 -10 0
-9 3 2 10 16 10 23 6 26 -15z"/>
<path d="M2615 4079 c-4 -11 -5 -23 -2 -26 3 -2 8 5 12 16 3 11 14 22 23 24
13 4 11 5 -5 6 -14 1 -24 -7 -28 -20z"/>
<path d="M1480 4071 c14 -26 13 -28 -11 -34 -29 -8 -22 -51 9 -55 12 -2 22 2
22 8 0 6 5 8 10 5 6 -3 10 -4 10 -1 0 11 -40 96 -45 96 -3 0 -1 -9 5 -19z m18
-58 c-2 -10 -10 -18 -18 -18 -8 0 -16 8 -18 18 -2 12 3 17 18 17 15 0 20 -5
18 -17z"/>
<path d="M1528 4063 c-15 -19 1 -48 28 -48 27 0 30 51 4 58 -11 3 -25 -2 -32
-10z m32 -13 c-19 -13 -30 -13 -30 0 0 6 10 10 23 10 18 0 19 -2 7 -10z m5
-20 c-3 -5 -11 -10 -16 -10 -6 0 -7 5 -4 10 3 6 11 10 16 10 6 0 7 -4 4 -10z"/>
<path d="M2728 4059 c-19 -11 -13 -45 9 -53 18 -7 43 10 43 30 0 20 -32 34
-52 23z m35 -35 c-3 -8 -9 -14 -13 -14 -14 0 -22 20 -16 37 5 12 9 13 21 3 7
-6 11 -18 8 -26z"/>
<path d="M2827 4007 l-28 -42 27 30 27 29 -5 -36 c-3 -32 -2 -34 14 -24 10 6
18 14 18 18 0 5 5 8 11 8 7 0 8 -12 4 -32 -4 -18 -5 -31 -2 -28 9 8 26 90 19
90 -3 0 -17 -10 -30 -22 l-24 -23 4 38 c2 20 2 37 -2 37 -3 -1 -18 -20 -33
-43z"/>
<path d="M1421 4009 c-1 -8 6 -24 15 -35 15 -19 15 -19 6 1 -5 11 -12 27 -15
35 -5 13 -6 13 -6 -1z"/>
<path d="M1901 3985 c-110 -21 -255 -64 -345 -103 -392 -170 -695 -500 -826
-901 -33 -103 -34 -104 -56 -256 -16 -107 -15 -318 1 -415 36 -212 115 -409
236 -590 38 -57 58 -95 51 -98 -7 -2 -10 -8 -7 -13 4 -5 -1 -6 -9 -3 -9 4 -18
-1 -22 -10 -3 -9 -10 -14 -15 -11 -9 6 -49 -14 -61 -30 -4 -5 -8 -6 -8 -2 0 4
-9 3 -20 -3 -11 -6 -18 -15 -15 -20 3 -5 0 -12 -6 -16 -8 -5 -9 -3 -4 6 6 10
4 12 -9 7 -10 -4 -20 -7 -22 -7 -3 0 -2 -4 1 -10 3 -6 -1 -7 -9 -4 -9 4 -18
-1 -22 -10 -3 -9 -10 -13 -16 -10 -5 3 -16 -2 -24 -12 -9 -11 -12 -13 -9 -6 6
11 3 11 -13 1 -12 -7 -18 -17 -15 -23 3 -5 1 -6 -5 -3 -15 10 -43 -3 -35 -16
3 -5 1 -7 -4 -4 -6 4 -38 -8 -72 -27 -33 -19 -68 -36 -78 -38 -10 -2 -19 -13
-21 -24 -2 -17 7 -25 50 -42 230 -89 597 -234 613 -241 11 -5 90 -36 175 -69
487 -189 595 -234 627 -262 97 -85 213 -114 326 -80 62 19 145 68 155 92 5 11
35 24 342 143 151 59 428 168 615 242 187 74 375 148 418 165 103 39 102 53
-3 107 -44 22 -80 38 -80 35 0 -3 -7 2 -16 10 -8 9 -19 14 -24 11 -4 -3 -11 2
-14 11 -4 9 -9 14 -12 11 -4 -3 -13 0 -20 8 -8 8 -22 11 -31 8 -9 -4 -14 -2
-10 3 3 6 -14 19 -39 30 -24 10 -44 23 -44 27 0 5 -4 5 -10 2 -5 -3 -10 -1
-10 5 0 6 -4 8 -10 5 -5 -3 -10 -2 -10 2 0 5 -22 19 -50 32 -27 13 -50 27 -50
31 0 4 16 28 36 54 81 106 176 293 214 421 48 163 62 250 65 405 8 409 -138
773 -425 1060 -101 102 -130 126 -235 195 -152 100 -299 163 -490 212 -88 22
-124 26 -310 28 -147 2 -232 -1 -284 -10z m1649 -2575 c0 -5 -5 -10 -11 -10
-5 0 -7 5 -4 10 3 6 8 10 11 10 2 0 4 -4 4 -10z m171 -33 c-10 -9 -11 -8 -5 6
3 10 9 15 12 12 3 -3 0 -11 -7 -18z m-2426 -107 c3 -6 -1 -7 -9 -4 -18 7 -21
14 -7 14 6 0 13 -4 16 -10z m-120 -40 c3 -6 -1 -7 -9 -4 -18 7 -21 14 -7 14 6
0 13 -4 16 -10z m70 -128 c-3 -3 -11 0 -18 7 -9 10 -8 11 6 5 10 -3 15 -9 12
-12z m915 -47 c9 -10 9 -15 1 -15 -6 0 -11 -9 -11 -19 0 -11 -5 -23 -11 -27
-7 -4 -10 -1 -7 7 3 8 2 24 -3 35 -12 34 8 46 31 19z m-550 -5 c0 -5 -2 -10
-4 -10 -3 0 -8 5 -11 10 -3 6 -1 10 4 10 6 0 11 -4 11 -10z m1117 -15 c0 -8
-4 -12 -9 -9 -5 3 -6 10 -3 15 9 13 12 11 12 -6z m-122 -4 c3 -5 2 -12 -3 -15
-5 -3 -9 1 -9 9 0 17 3 19 12 6z m-895 -55 c0 -3 -4 -8 -10 -11 -5 -3 -10 -1
-10 4 0 6 5 11 10 11 6 0 10 -2 10 -4z m754 -4 c2 -4 -5 -9 -17 -9 -17 -2 -19
0 -7 7 18 12 18 12 24 2z m61 -30 c-3 -3 -11 0 -18 7 -9 10 -8 11 6 5 10 -3
15 -9 12 -12z m-680 -20 c-3 -3 -11 0 -18 7 -9 10 -8 11 6 5 10 -3 15 -9 12
-12z m520 9 c-9 -8 -36 -10 -30 -2 2 4 11 8 20 8 8 0 13 -3 10 -6z m-675 -25
c-7 -7 -13 -7 -20 0 -6 6 -3 10 10 10 13 0 16 -4 10 -10z m615 5 c3 -5 2 -12
-3 -15 -5 -3 -9 1 -9 9 0 17 3 19 12 6z m138 -11 c10 -12 9 -12 -4 -2 -9 6
-18 9 -21 6 -3 -3 -9 -1 -12 4 -9 15 22 8 37 -8z m-589 -28 c3 -5 -1 -9 -9 -9
-8 0 -15 4 -15 9 0 4 4 8 9 8 6 0 12 -4 15 -8z m312 -4 c3 -4 -1 -5 -10 -4 -8
1 -18 5 -22 8 -3 4 1 5 10 4 8 -1 18 -5 22 -8z m64 2 c0 -5 -5 -10 -11 -10 -5
0 -7 5 -4 10 3 6 8 10 11 10 2 0 4 -4 4 -10z m100 -2 c0 -4 -4 -8 -9 -8 -6 0
-12 4 -15 8 -3 5 1 9 9 9 8 0 15 -4 15 -9z m40 8 c0 -3 -4 -8 -10 -11 -5 -3
-10 -1 -10 4 0 6 5 11 10 11 6 0 10 -2 10 -4z m115 -6 c3 -5 1 -10 -4 -10 -6
0 -11 5 -11 10 0 6 2 10 4 10 3 0 8 -4 11 -10z m-560 -28 c-3 -3 -11 0 -18 7
-9 10 -8 11 6 5 10 -3 15 -9 12 -12z m39 10 c3 -5 -1 -9 -9 -9 -8 0 -12 4 -9
9 3 4 7 8 9 8 2 0 6 -4 9 -8z m406 -37 c0 -7 -30 -13 -34 -7 -3 4 4 9 15 9 10
1 19 0 19 -2z"/>
<path d="M1332 3968 c-17 -17 -15 -36 7 -47 23 -13 41 5 37 34 -3 24 -26 31
-44 13z m18 -13 c-11 -13 -10 -14 4 -9 9 3 16 1 16 -5 0 -14 -27 -15 -35 -1
-8 12 2 30 17 30 6 0 6 -6 -2 -15z"/>
<path d="M2922 3953 c-11 -21 -5 -43 11 -43 8 0 8 3 0 11 -14 14 -6 39 12 39
21 0 28 -19 14 -36 -6 -8 -9 -17 -6 -20 3 -3 11 4 17 16 9 16 9 25 -1 36 -16
19 -36 18 -47 -3z"/>
<path d="M1267 3936 c-16 -12 -16 -17 -5 -35 7 -12 17 -21 22 -21 4 0 3 7 -4
15 -7 8 -9 23 -5 32 6 16 8 16 26 -6 10 -13 19 -19 19 -13 0 9 -27 43 -33 42
-1 0 -10 -7 -20 -14z"/>
<path d="M2986 3915 c-9 -14 -12 -25 -7 -25 5 0 11 7 15 15 3 8 13 15 22 15
10 0 14 -5 10 -15 -17 -42 -19 -50 -9 -40 23 21 25 53 5 64 -16 9 -23 6 -36
-14z"/>
<path d="M1240 3890 c17 -32 -3 -48 -24 -19 -8 13 -18 20 -21 18 -2 -3 4 -15
15 -27 17 -18 24 -20 40 -10 19 12 14 38 -11 54 -7 4 -7 -1 1 -16z"/>
<path d="M3101 3874 c-26 -38 -51 -45 -51 -14 0 14 7 20 23 20 17 0 19 2 7 10
-18 11 -40 -5 -40 -31 0 -10 8 -23 19 -28 16 -9 23 -4 46 29 16 22 26 42 24
45 -3 2 -15 -12 -28 -31z"/>
<path d="M1140 3844 c1 -13 29 -48 34 -43 2 2 -4 15 -15 28 -10 13 -19 19 -19
15z"/>
<path d="M3113 3843 c-21 -8 -15 -41 10 -53 21 -11 21 -10 3 4 -11 9 -17 19
-13 23 4 3 16 -2 27 -12 20 -18 20 -17 20 7 0 20 -21 43 -33 37 -1 0 -8 -3
-14 -6z m32 -14 c11 -17 -1 -21 -15 -4 -8 9 -8 15 -2 15 6 0 14 -5 17 -11z"/>
<path d="M1101 3816 c-9 -10 -9 -16 -1 -21 6 -4 14 -4 17 -1 4 3 0 6 -7 6 -9
0 -7 5 6 15 10 8 14 15 8 15 -6 0 -17 -6 -23 -14z"/>
<path d="M1133 3798 c3 -9 0 -21 -6 -27 -9 -9 -8 -11 6 -6 19 8 23 30 5 41 -7
5 -9 2 -5 -8z"/>
<path d="M1023 3766 c0 -6 13 -21 29 -34 19 -16 26 -18 22 -8 -3 9 -10 16 -15
16 -5 0 -9 8 -9 18 0 10 -6 19 -13 19 -8 0 -14 -5 -14 -11z"/>
<path d="M962 3744 c-15 -16 -10 -27 31 -68 18 -18 19 -18 40 5 12 12 14 17 5
10 -10 -7 -25 -10 -34 -7 -15 6 -15 8 1 26 10 11 13 20 8 20 -6 0 -14 -7 -17
-16 -5 -13 -9 -14 -21 -4 -14 11 -14 15 1 31 10 11 13 19 8 19 -5 -1 -15 -8
-22 -16z"/>
<path d="M3303 3754 c9 -3 17 -13 17 -21 0 -9 -3 -13 -6 -10 -8 8 -44 -11 -44
-23 0 -4 14 -2 31 7 34 17 36 46 4 50 -16 1 -16 1 -2 -3z"/>
<path d="M2117 364 c-12 -13 -8 -42 8 -48 25 -9 46 5 43 28 -3 21 -37 34 -51
20z"/>
<path d="M1495 350 l-40 -5 0 -115 0 -115 73 -3 c70 -3 72 -2 69 20 -3 18 -12
24 -42 28 -26 3 -39 10 -41 23 -2 19 -2 19 41 21 22 1 30 7 30 21 1 26 -12 34
-45 29 -23 -4 -26 -1 -25 18 1 19 9 24 41 28 30 4 39 9 39 25 0 23 -39 33
-100 25z"/>
<path d="M1923 347 c-21 -9 -33 -34 -33 -69 0 -10 25 -36 56 -58 45 -34 53
-44 43 -56 -9 -11 -15 -12 -25 -3 -8 6 -14 17 -14 24 0 10 -16 12 -52 6 -16
-2 -7 -49 12 -66 27 -24 103 -24 131 1 35 32 22 73 -39 118 -42 31 -50 42 -41
53 14 16 34 12 34 -8 0 -9 13 -15 33 -17 28 -3 32 0 32 21 0 13 -8 31 -18 40
-22 20 -89 28 -119 14z"/>
<path d="M2730 352 c-6 -2 -10 -14 -10 -26 0 -17 6 -23 23 -23 45 -1 57 -3 57
-12 0 -5 -11 -12 -24 -15 -40 -10 -56 -83 -22 -96 31 -11 46 -1 46 31 0 26 4
29 30 29 24 0 30 4 31 23 2 23 2 68 0 79 -1 7 -115 15 -131 10z"/>
<path d="M1673 343 c-7 -3 -13 -13 -13 -23 0 -10 -7 -20 -15 -24 -8 -3 -15
-15 -15 -26 0 -11 7 -20 15 -20 12 0 15 -15 15 -71 l0 -70 32 3 33 3 -2 68
c-1 52 2 67 13 67 8 0 14 10 14 25 0 15 -6 25 -14 25 -8 0 -16 10 -18 22 -3
21 -21 29 -45 21z"/>
<path d="M2108 288 c-3 -11 -3 -126 1 -165 1 -7 14 -13 31 -13 l30 0 0 95 0
95 -29 0 c-16 0 -31 -6 -33 -12z"/>
<path d="M2324 145 c-9 -22 13 -44 36 -38 13 3 20 14 20 29 0 19 -5 24 -25 24
-14 0 -28 -7 -31 -15z"/>
<path d="M2427 153 c-13 -12 -7 -32 12 -43 23 -12 54 12 45 35 -6 15 -45 21
-57 8z"/>
<path d="M2524 145 c-8 -21 4 -35 32 -35 19 0 24 5 24 25 0 20 -5 25 -25 25
-14 0 -28 -7 -31 -15z"/>
<path d="M2737 141 c-7 -27 12 -41 41 -30 31 12 25 43 -9 47 -20 2 -28 -2 -32
-17z"/>
</g>
</svg>
